<?xml version="1.0" encoding="utf-8"?>  <!DOCTYPE svg PUBLIC "-//W3C//DTD SVG 1.0//EN" "http://www.w3.org/TR/2001/REC-SVG-20010904/DTD/svg10.dtd">  <svg version="1.0" xmlns="http://www.w3.org/2000/svg" width="1024px" height="1024px" viewBox="0 0 1024 1024" preserveAspectRatio="xMidYMid meet">  
    <style>
  path {
    stroke: #131f4f;
    stroke-width: 20;          /* encore plus épais */
    fill: none;
    stroke-dasharray: 1500;   /* longueur totale à ajuster selon tes paths */
    stroke-dashoffset: 1500;
    animation: draw 10s linear infinite;
  }

  @keyframes draw {
    0%   { stroke-dashoffset: 1500; }  /* invisible (non tracé) */
    50%  { stroke-dashoffset: 0; }     /* tout est dessiné */
    100% { stroke-dashoffset: 1500; }  /* tout est effacé */
  }

  /* Séquencement automatique : chaque path démarre avec un léger délai */
  svg {
    counter-reset: path-counter;
  }
  path {
    counter-increment: path-counter;
    --i: counter(path-counter);
    animation-delay: calc((var(--i) - 1) * (5s / 69)); /* chaque path a son décalage dans la phase d'apparition */
  }
</style>
 <g fill="#131f4f">  
  <path d="M110.1 918.2 l-3.4 -1.7 -1.9 -3.5 -1.8 -3.5 0 -50.5 0 -50.5 1.8 -3.4 1.7 -3.5 2.8 -2 2.8 -2.1 16 -0.3 15.9 -0.3 0.2 -16.7 c0.2 -22.5 0.5 -29.6 1.2 -33.5 l0.6 -3.3 3.1 -3 3 -2.9 14.8 -0.3 14.7 -0.3 0.2 -21.6 0.3 -21.5 1.5 -3 1.5 -2.9 3.2 -1.9 3.2 -2 12.1 0 12.2 0 0.3 -20.8 c0.2 -11.5 0.4 -66.5 0.4 -122.3 l0 -101.4 -10.9 0.3 -10.9 0.4 -3.6 -1.7 -3.6 -1.6 -2.5 -3.6 -2.5 -3.7 -0.3 -16.8 -0.2 -16.9 -24.8 0.1 -24.7 0.1 -4.5 -2.3 -4.5 -2.3 -1.7 -3.1 -1.8 -3.1 -0.2 -38.9 -0.3 -38.9 2.1 -3.9 2 -4 25.5 -15.4 c40.4 -24.5 244.7 -147.1 296.9 -178.2 26.1 -15.5 50.2 -29.9 53.6 -32 3.4 -2.1 7.8 -4.3 9.8 -5 l3.6 -1.2 3.3 0.7 3.2 0.7 14.5 8.6 c8 4.7 17.9 10.7 22 13.3 7 4.4 48.5 29.6 98.5 59.9 38.9 23.6 60.8 36.9 122 74.4 33 20.2 60.7 37.1 61.5 37.6 0.8 0.5 7.6 4.6 15 9.1 7.4 4.5 16.4 10 20 12.3 6.3 4.1 19 11.9 23 14.2 l2 1.1 -0.7 0.6 -0.6 0.7 1.4 0 1.5 0 1.9 3.2 2 3.3 -0.2 39.4 -0.2 39.4 -1.8 2.6 c-1.1 1.3 -3.2 3.4 -4.7 4.5 l-2.7 2.1 -26.2 0.2 -26.2 0.3 -0.5 17.9 -0.5 18 -3 3.1 -2.9 3.1 -2.6 0.6 c-1.4 0.4 -2.8 0.8 -3.2 0.9 -0.5 0.1 -5.7 0.2 -11.8 0.3 l-11 0.1 0.2 112.3 c0.1 61.7 0.4 116.6 0.6 121.9 l0.3 9.7 13.9 0.3 13.8 0.3 2.2 2 c1.2 1.1 2.8 3.2 3.6 4.7 l1.4 2.8 0.3 21.5 0.2 21.5 13.3 0 13.3 0 3 1.5 3 1.6 1.9 3.2 2 3.2 0 25.3 0 25.2 14.5 0 14.6 0 3.2 1.4 3.3 1.3 2.7 3.2 2.7 3.3 0 51.9 0 52 -1.5 2.9 c-0.8 1.5 -2.7 3.8 -4.1 4.9 l-2.7 2.1 -399.1 0 -399.1 0 -3.4 -1.8z m784.7 -59.4 l0.2 -34.8 -383 0 -383 0 0 35 0 35 382.8 -0.2 382.7 -0.3 0.3 -34.7z m-129.5 -61.8 l88.7 0 0 -17 0 -17 -342 0 -342 0 0 17 0 17 188.3 0.2 c103.5 0.2 217.5 0.2 253.2 0.1 35.8 -0.2 104.9 -0.3 153.8 -0.3z m-424.3 -74 l0 -14 -67 0 -67 0.1 0 13.9 0 14 67 0 67 0 0 -14z m87.5 -7.8 l0 -21.8 1.8 -2.7 1.8 -2.8 3.2 -1.9 3.2 -2 10.8 0 10.7 0 0 -122 0 -122 -1.7 -0.1 c-1 0 -5.7 -0.1 -10.4 -0.2 l-8.5 -0.2 -2.8 -1.8 -2.8 -1.9 -1.9 -4.1 -1.9 -4.2 0 -16 0 -16 -31.6 0.2 -31.6 0.2 0.1 15.6 0.2 15.5 -2 4.4 -1.9 4.4 -2.8 1.9 -2.8 1.8 -10.1 0.2 c-5.5 0.1 -11.2 0.2 -12.7 0.2 l-2.8 0.1 0 122 0 122 12.3 0 12.2 0 3.2 2 3.2 1.9 1.8 2.7 1.7 2.7 0.4 21.9 0.4 21.8 30.7 0 30.6 0 0 -21.8z m141.5 7.8 l0 -13.9 -57.7 0.2 -57.8 0.2 -0.3 13.8 -0.3 13.7 58.1 0 58 0 0 -14z m87.2 -7.8 l0.3 -21.8 1.8 -2.7 1.8 -2.8 3.2 -1.9 3.2 -2 11.6 0 11.6 0 0.7 -35.1 0.8 -35.1 -0.3 -86.8 -0.2 -86.8 -12.8 -0.4 -12.8 -0.3 -2.8 -2.1 -2.8 -2 -1.7 -3.5 -1.8 -3.4 0 -16.2 0 -16.3 -23.5 -0.1 c-12.9 0 -26.2 0 -29.5 0 -3.3 0 -6.9 0 -8 0 l-2 0.1 0 16.6 0 16.6 -1.6 3.3 -1.6 3.4 -3.9 1.9 -3.9 2 -8.6 0 -8.6 0.1 -0.7 0.6 -0.6 0.7 -0.3 86.1 -0.4 86.2 0.7 35.3 0.7 35.2 9.7 0 9.6 0 3.4 1.8 3.5 1.7 2 2.8 2.1 2.8 0.3 22 0.3 21.9 30.4 0 30.4 0 0.3 -21.8z m159.8 7.8 l0 -14 -67.1 0.2 -67 0.3 -0.2 13.8 -0.2 13.7 67.3 0 67.2 0 0 -14z m-511 -161 l0 -122 -26.2 -0.1 c-26.8 -0.1 -33 -0.1 -36 0 l-1.8 0.1 0 122 0 122 32 0 32 0 0 -122z m233 0 l0 -122 -22.5 -0.1 c-12.4 -0.1 -23.4 -0.1 -24.5 -0.1 -1.1 0 -3.1 0 -4.5 0.1 l-2.5 0.1 0 122 0 122 27 0 27 0 0 -122z m242 0 l0 -122 -2.7 0 c-1.6 0 -15.5 -0.1 -31 -0.2 l-28.3 -0.2 -0.7 0.8 -0.8 0.8 -0.1 99.1 c-0.1 54.6 0.1 109.2 0.3 121.5 l0.5 22.2 31.4 0 31.4 0 0 -122z m-440 -157 l0 -9 -67 0 -67.1 0 0.3 9 0.3 9 66.8 0 66.7 0 0 -9z m228 0 l0 -9 -56.4 0 -56.5 0 -0.3 9 -0.3 9 56.8 0 56.7 0 0 -9z m247.1 3.8 c0.1 -2.9 0.3 -7 0.4 -9 l0.2 -3.8 -66.8 -0.2 -66.8 -0.3 -0.3 9.3 -0.3 9.2 66.8 0 66.7 0 0.1 -5.2z m62.1 -42.5 c0.2 -1.6 0.3 -13.1 0.3 -25.7 l0 -23 -33.1 -20 c-18.2 -11.1 -40.1 -24.3 -48.5 -29.5 -16.5 -10.1 -27.8 -17 -68.4 -41.6 -14.3 -8.7 -35.2 -21.4 -46.5 -28.3 -11.3 -6.8 -31.1 -18.8 -44 -26.6 -12.9 -7.9 -31.8 -19.3 -42 -25.6 -22 -13.4 -57.6 -35 -71.5 -43.3 -5.5 -3.3 -10.4 -6 -11 -6 -0.5 0 -8 4.2 -16.5 9.3 -8.5 5.1 -29.9 17.8 -47.5 28.3 -17.6 10.5 -70.9 42.5 -118.5 71 -47.6 28.6 -90.1 54.1 -94.5 56.7 -4.4 2.6 -15.9 9.6 -25.5 15.5 -9.6 5.8 -28.4 17.2 -41.7 25.1 l-24.3 14.5 0 26 0 25.9 366.4 0 366.4 0 0.4 -2.7z"/>  
  <path d="M182.4 346.6 l-3.1 -1.4 -2.2 -2.7 c-1.2 -1.6 -2.4 -3.9 -2.8 -5.3 l-0.6 -2.4 1.1 -3.7 1.1 -3.7 3.3 -3 3.3 -3.1 13 -8 c7.2 -4.4 19.8 -12.1 28 -17 8.3 -5 32.1 -19.3 53 -32 20.9 -12.6 58.7 -35.3 84 -50.5 42.9 -25.6 60 -35.8 125.5 -74.7 l25.4 -15.1 2.7 0 2.6 0 10.9 6.6 c33.1 20.2 62.7 38.2 68.9 41.9 3.9 2.3 15.3 9.3 25.5 15.5 10.2 6.2 25.7 15.7 34.5 21 18 10.9 75.3 45.8 92 56 6.1 3.7 18.2 11.1 27 16.5 8.8 5.3 27.9 17 42.4 25.9 l26.3 16.1 2.5 3.7 2.6 3.8 -0.5 5 -0.5 5 -1.9 2.1 c-1 1.2 -3.3 2.8 -5.1 3.5 l-3.2 1.4 -326.3 0 -326.3 -0.1 -3.1 -1.3z m606.2 -25.9 c0.3 -0.2 -5.7 -4.2 -13.3 -8.7 -7.6 -4.6 -26.4 -16 -41.8 -25.5 -33 -20.3 -112 -68.3 -189.3 -115.2 l-30.4 -18.3 -9.6 5.7 c-5.4 3.1 -14 8.2 -19.2 11.3 -5.2 3.1 -33.1 19.8 -62 37 -61.8 36.9 -130.8 78.3 -150.5 90.4 -7.7 4.7 -19.5 11.9 -26.3 15.8 l-12.2 7.3 33.7 0.5 c43.4 0.6 520.2 0.4 520.9 -0.3z"/>  
  <path d="M503.8 306 c-11.1 -2 -17.8 -4.9 -26.6 -11.5 l-6.2 -4.7 -4.4 -6.2 c-2.4 -3.3 -5.5 -8.5 -7 -11.3 l-2.6 -5.3 -1.5 -6.2 -1.5 -6.3 0 -8 0 -8.1 1.5 -5.9 1.6 -6 3.2 -6.3 3.2 -6.3 5 -5.8 5 -5.8 4.5 -3 c6.2 -4.3 11.5 -6.8 18.5 -8.9 l6 -1.8 10.5 0.1 10.5 0 6.5 2.2 c3.6 1.3 9 3.7 12 5.4 l5.5 3.1 6.7 6.7 6.7 6.8 3.9 8.3 3.9 8.3 1.1 5.5 c0.6 3 1.4 7.3 1.6 9.4 l0.5 4 -1 7.5 -1.1 7.6 -2.9 7 -2.9 7 -5 6.7 -5 6.8 -4.2 3.1 c-2.4 1.7 -6.2 4.2 -8.5 5.5 l-4.1 2.5 -6.9 1.9 -6.8 2 -7.5 0.4 -7.5 0.5 -4.7 -0.9z m16.4 -27.1 l5.3 -1.1 4.2 -2.4 4.1 -2.4 4 -4.6 4.1 -4.6 1.7 -5 1.6 -5 -0.4 -8.2 -0.4 -8.1 -2.9 -5.4 -2.9 -5.3 -4 -3.4 c-2.2 -1.9 -6 -4.4 -8.5 -5.6 l-4.6 -2.3 -8.5 0 -8.5 0 -5.6 2.6 -5.6 2.6 -3.8 3.8 -3.8 3.8 -2.3 5.2 -2.4 5.2 -0.2 7.4 -0.2 7.4 1.9 5.3 2 5.4 3.4 4 3.4 4 3.9 2.4 3.8 2.5 5.3 1.4 c6.5 1.7 9.2 1.8 15.9 0.4z"/>  
 </g>  
 <g fill="#000003">  
  <path d="M919.3 905.5 l0 -6 0.4 3.3 c0.2 1.8 0.2 4.5 0 6 l-0.4 2.7 0 -6z"/>  
  <path d="M919.3 889.5 l0 -8 0.4 4.3 c0.2 2.3 0.2 5.9 0 8 l-0.4 3.7 0 -8z"/>  
  <path d="M103.4 883.5 l0 -12 0.3 6.3 c0.2 3.4 0.2 8.8 0 12 l-0.3 5.7 0 -12z"/>  
  <path d="M320.7 894.3 c105.2 -0.2 277.4 -0.2 382.5 0 l191.3 0.2 -382.5 0 -382.5 0 191.2 -0.2z"/>  
  <path d="M128.4 860 l0 -32.5 0.3 16.3 c0.2 8.9 0.2 23.5 0 32.5 l-0.3 16.2 0 -32.5z"/>  
  <path d="M919.3 877.5 l0 -4 0.4 2.3 c0.2 1.2 0.2 3 0 4 l-0.5 1.7 0.1 -4z"/>  
  <path d="M103.4 839.5 l0 -24 0.3 12.3 c0.2 6.8 0.2 17.6 0 24 l-0.3 11.7 0 -24z"/>  
  <path d="M919.3 815 l0 -6.5 0.4 3.3 c0.2 1.7 0.2 4.7 0 6.5 l-0.4 3.2 0 -6.5z"/>  
  <path d="M169.4 779.5 l0 -16 0.3 8.3 c0.2 4.6 0.2 11.8 0 16 l-0.3 7.7 0 -16z"/>  
  <path d="M854.2 779.3 l-0.2 -16.3 -341.7 -0.3 -341.8 -0.2 341.8 -0.3 341.8 -0.2 0.5 1.3 c0.2 0.7 0.3 8.2 0.1 16.7 l-0.3 15.5 -0.2 -16.2z"/>  
  <path d="M160.2 737.3 c3.7 -0.2 10 -0.2 14 0 l7.3 0.3 -14 0 -14 0 6.7 -0.3z"/>  
  <path d="M206.4 736.7 c-0.2 -0.7 -0.3 -7.1 -0.1 -14.3 l0.3 -12.9 0.2 13.8 0.2 13.7 67 0 66.9 0 0.4 -13.5 0.3 -13.5 -0.1 13.7 0 13.8 -67.3 0.3 -67.3 0.2 -0.5 -1.3z"/>  
  <path d="M366.4 736.7 c-0.2 -0.7 -0.3 -8.2 -0.1 -16.7 l0.3 -15.5 0.2 16.2 0.2 16.3 30.8 0.3 30.7 0.2 -30.8 0.3 -30.8 0.2 -0.5 -1.3z"/>  
  <path d="M483.2 737.3 c15.9 -0.2 41.7 -0.2 57.5 0 l28.8 0.2 -57.5 0 -57.5 0 28.7 -0.2z"/>  
  <path d="M611.8 737.3 c8.4 -0.2 21.9 -0.2 30 0 l14.7 0.3 -30 0 -30 0 15.3 -0.3z"/>  
  <path d="M750.2 737.3 l66.7 -0.3 0.4 -13.5 0.3 -13.5 -0.1 13.7 0 13.8 -67 0 -67 0 66.7 -0.2z"/>  
  <path d="M849.2 737.3 c3.7 -0.2 10 -0.2 14 0 l7.3 0.3 -14 0 -14 0 6.7 -0.3z"/>  
  <path d="M657.4 715.5 l0 -20 0.3 9.7 c0.2 5.3 0.2 14.3 0 20 l-0.3 10.3 0 -20z"/>  
  <path d="M204 684.3 l12 -0.4 0.3 -18.2 0.3 -18.2 -0.1 18.5 0 18.5 -12.3 0 -12.2 0.1 12 -0.3z"/>  
  <path d="M257.8 684.3 c9 -0.2 23.4 -0.2 32 0 l15.7 0.3 -32 0 -32 0 16.3 -0.3z"/>  
  <path d="M338.8 684.3 c3.4 -0.2 8.8 -0.2 12 0 l5.7 0.3 -12 0 -12 0 6.3 -0.3z"/>  
  <path d="M444.8 684.3 c2.9 -0.2 7.4 -0.2 10 0 l4.7 0.3 -10 0 -10 0 5.3 -0.3z"/>  
  <path d="M498.8 684.3 c7.2 -0.2 19.2 -0.2 26.5 0 l13.2 0.3 -26.5 0 -26.5 0 13.3 -0.3z"/>  
  <path d="M569.8 684.3 c2.8 -0.2 7.6 -0.2 10.5 0 l5.2 0.3 -10.5 0 -10.5 0 5.3 -0.3z"/>  
  <path d="M672.8 684.3 c3.4 -0.2 9 -0.2 12.5 0 l6.2 0.3 -12.5 0 -12.5 0 6.3 -0.3z"/>  
  <path d="M733.8 684.3 c9 -0.2 23.4 -0.2 32 0 l15.7 0.3 -32 0 -32 0 16.3 -0.3z"/>  
  <path d="M813.3 684.3 c3.7 -0.2 9.6 -0.2 13 0 l6.2 0.3 -13 0 -13 0 6.8 -0.3z"/>  
  <path d="M717.4 664 l0 -19.5 0.3 9.8 c0.2 5.3 0.2 14.1 0 19.5 l-0.3 9.7 0 -19.5z"/>  
  <path d="M806.4 674.5 l-0.1 -9 0.4 4.2 c0.2 2.3 0.2 6.4 0 9 l-0.3 4.8 0 -9z"/>  
  <path d="M691.4 664 l0 -18.5 0.3 9.3 c0.2 5 0.2 13.4 0 18.5 l-0.3 9.2 0 -18.5z"/>  
  <path d="M806.3 661.5 l0 -4 0.4 2.3 c0.2 1.2 0.2 3 0 4 l-0.5 1.7 0.1 -4z"/>  
  <path d="M216.3 616 l0 -8.5 0.4 4.3 c0.2 2.3 0.2 6.1 0 8.5 l-0.4 4.2 0 -8.5z"/>  
  <path d="M216.2 601 l0 -3.5 0.5 1.8 c0.2 0.9 0.2 2.5 0 3.5 l-0.5 1.7 0 -3.5z"/>  
  <path d="M216.3 593.5 l0 -4 0.4 2.3 c0.2 1.2 0.2 3 0 4 l-0.5 1.7 0.1 -4z"/>  
  <path d="M241.4 457 l0 -15.5 0.3 7.8 c0.2 4.2 0.2 11.2 0 15.5 l-0.3 7.7 0 -15.5z"/>  
  <path d="M717.4 443.8 l0.1 -4.3 2 -0.1 2 -0.1 -1.7 0.4 -1.7 0.4 -0.4 4 -0.4 3.9 0.1 -4.2z"/>  
  <path d="M691.2 444 l0 -3.5 0.5 1.8 c0.2 0.9 0.2 2.5 0 3.5 l-0.5 1.7 0 -3.5z"/>  
  <path d="M197.3 439.3 c2.6 -0.2 6.8 -0.2 9.5 0 l4.7 0.3 -9.5 0 -9.5 0 4.8 -0.3z"/>  
  <path d="M266.3 439.3 c7.1 -0.2 18.3 -0.2 25 0 l12.2 0.3 -25 0 -25 0 12.8 -0.3z"/>  
  <path d="M344.3 439.3 c2 -0.2 5.4 -0.2 7.5 0 l3.7 0.4 -7.5 0 -7.5 0 3.8 -0.4z"/>  
  <path d="M449.3 439.3 c0.9 -0.2 2.5 -0.2 3.5 0 l1.7 0.5 -3.5 0 -3.5 0 1.8 -0.5z"/>  
  <path d="M504.8 439.3 c6.1 -0.2 16.3 -0.2 22.5 0 l11.2 0.3 -22.5 0 -22.5 0 11.3 -0.3z"/>  
  <path d="M573.3 439.3 c1.5 -0.2 3.9 -0.2 5.5 0 l2.7 0.4 -5.5 0 -5.5 0 2.8 -0.4z"/>  
  <path d="M673.3 439.3 c3.2 -0.2 8.1 -0.2 11 0 l5.2 0.3 -11 0 -11 0 5.8 -0.3z"/>  
  <path d="M744.3 439.3 c5.9 -0.2 15.4 -0.2 21 0 l10.2 0.3 -21 0 -21 0 10.8 -0.3z"/>  
  <path d="M812.3 439.3 c3.2 -0.2 8.1 -0.2 11 0 l5.2 0.3 -11 0 -11 0 5.8 -0.3z"/>  
  <path d="M657.4 412 l0 -15.5 0.3 7.8 c0.2 4.2 0.2 11.2 0 15.5 l-0.3 7.7 0 -15.5z"/>  
  <path d="M240.8 414.3 c18.2 -0.2 48.2 -0.2 66.5 0 l33.2 0.2 -66.5 0 -66.5 0 33.3 -0.2z"/>  
  <path d="M483.8 414.3 c15.5 -0.2 40.9 -0.2 56.5 0 l28.2 0.2 -56.5 0 -56.5 0 28.3 -0.2z"/>  
  <path d="M715.8 414.3 c18.2 -0.2 48.2 -0.2 66.5 0 l33.2 0.2 -66.5 0 -66.5 0 33.3 -0.2z"/>  
  <path d="M341.3 405 l0 -8.5 0.4 4.3 c0.2 2.3 0.2 6.1 0 8.5 l-0.4 4.2 0 -8.5z"/>  
  <path d="M593.3 403.5 l0 -4 0.4 2.3 c0.2 1.2 0.2 3 0 4 l-0.5 1.7 0.1 -4z"/>  
  <path d="M241.3 395.3 c18.1 -0.2 47.3 -0.2 65 0 l32.2 0.2 -65 0 -65 0 32.8 -0.2z"/>  
  <path d="M483.3 395.3 c14.1 -0.2 37.3 -0.2 51.5 0 l25.7 0.2 -51.5 0 -51.5 0 25.8 -0.2z"/>  
  <path d="M725.8 395.3 c16.1 -0.2 42.2 -0.2 58 0 l28.7 0.2 -58 0 -58 0 29.3 -0.2z"/>  
  <path d="M328.7 369.3 c100.8 -0.2 265.8 -0.2 366.5 0 l183.3 0.2 -366.5 0 -366.5 0 183.2 -0.2z"/>  
  <path d="M144.4 343 l0 -24.5 0.3 12.3 c0.2 6.7 0.2 17.7 0 24.5 l-0.3 12.2 0 -24.5z"/>  
  <path d="M878.4 341.5 l0 -10 0.3 5.3 c0.2 2.9 0.2 7.4 0 10 l-0.3 4.7 0 -10z"/>  
  <path d="M348.3 347.3 c90 -0.2 237.4 -0.2 327.5 0 l163.7 0.2 -327.5 0 -327.5 0 163.8 -0.2z"/>  
  <path d="M903.4 334.5 l0 -12 0.3 6.3 c0.2 3.4 0.2 8.8 0 12 l-0.3 5.7 0 -12z"/>  
  <path d="M252.3 321.3 c9.3 -0.2 24.1 -0.2 33 0 l16.2 0.3 -33 0 -33 0 16.8 -0.3z"/>  
  <path d="M304.3 321.3 c1.5 -0.2 3.9 -0.2 5.5 0 l2.7 0.4 -5.5 0 -5.5 0 2.8 -0.4z"/>  
  <path d="M481.3 321.3 c18.5 -0.2 48.9 -0.2 67.5 0 l33.7 0.2 -67.5 0 -67.5 0 33.8 -0.2z"/>  
  <path d="M730.8 321.3 c10.5 -0.2 27.9 -0.2 38.5 0 l19.2 0.2 -38.5 0 -38.5 0 19.3 -0.2z"/>  
  <path d="M454.3 247.5 l0 -8 0.4 4.3 c0.2 2.3 0.2 5.9 0 8 l-0.4 3.7 0 -8z"/>  
  <path d="M509.8 214.3 c1.2 -0.2 3.2 -0.2 4.5 0 l2.2 0.4 -4.5 0 -4.5 0 2.3 -0.4z"/>  
 </g>  
</svg>
