<?xml version="1.0" encoding="UTF-8"?>
<!DOCTYPE svg PUBLIC "-//W3C//DTD SVG 1.1//EN" "http://www.w3.org/Graphics/SVG/1.1/DTD/svg11.dtd">
<svg xmlns="http://www.w3.org/2000/svg" version="1.1" width="943px" height="609px" style="shape-rendering:geometricPrecision; text-rendering:geometricPrecision; image-rendering:optimizeQuality; fill-rule:evenodd; clip-rule:evenodd" xmlns:xlink="http://www.w3.org/1999/xlink">
    <style>
 .animate{
    stroke: #131f4f;
    stroke-width: 25;          /* encore plus épais */
    fill: none;
    stroke-dasharray: 7000;   /* longueur totale à ajuster selon tes paths */
    stroke-dashoffset: 1000;
    animation: draw 10s linear infinite;
  }

  @keyframes draw {
    0%   { stroke-dashoffset: 5000; }  /* invisible (non tracé) */
    50% { stroke-dashoffset: 0; }     /* tout est dessiné */
    100% { stroke-dashoffset: 5000; }  /* tout est effacé */
  }

  /* Séquencement automatique : chaque path démarre avec un léger délai */
  svg {
    counter-reset: path-counter;
  }
  path {
    counter-increment: path-counter;
    --i: counter(path-counter);
    animation-delay: calc((var(--i) - 50) * (0s / 0)); /* chaque path a son décalage dans la phase d'apparition */
  }
</style>
<g><path class="animate" d="M 396.5,202.5 C 392.162,202.622 391.828,202.955 395.5,203.5C 395.172,214.679 395.505,225.679 396.5,236.5C 398.212,248.132 402.045,259.132 408,269.5C 408.72,271.255 409.887,272.089 411.5,272C 465.139,219.361 518.473,166.361 571.5,113C 586.495,103.988 599.662,106.155 611,119.5C 619.761,130.684 628.761,141.684 638,152.5C 664.026,185.918 676.026,223.918 674,266.5C 726.446,214.721 778.946,162.888 831.5,111C 844.332,104.9 855.832,106.733 866,116.5C 879,132.833 892,149.167 905,165.5C 918.085,186.752 926.418,209.752 930,234.5C 930.5,344.499 930.667,454.499 930.5,564.5C 905.5,564.5 880.5,564.5 855.5,564.5C 855.667,458.166 855.5,351.833 855,245.5C 853.875,231.45 849.208,218.783 841,207.5C 788.139,260.694 734.973,313.528 681.5,366C 674.741,370.365 667.408,373.365 659.5,375C 638.836,375.5 618.169,375.667 597.5,375.5C 597.667,330.499 597.5,285.499 597,240.5C 595.151,228.476 590.817,217.476 584,207.5C 530.167,261.333 476.333,315.167 422.5,369C 411.791,376.185 401.124,376.185 390.5,369C 369.979,347.487 352.146,323.987 337,298.5C 323.243,266.962 317.577,233.962 320,199.5C 316.812,182.793 309.646,168.127 298.5,155.5C 283.416,191.085 279.583,227.752 287,265.5C 290.569,282.205 295.736,298.372 302.5,314C 283.313,338.962 258.646,356.628 228.5,367C 169.72,384.975 116.386,374.975 68.5,337C 18.7138,289.714 1.88051,232.547 18,165.5C 45.3965,81.0993 102.563,30.266 189.5,13C 240.847,3.27406 283.347,18.1074 317,57.5C 335,80.1667 353,102.833 371,125.5C 385.989,148.967 394.489,174.634 396.5,202.5 Z M 195.5,77.5 C 218.067,75.0347 235.233,83.368 247,102.5C 258.436,159.126 239.603,202.626 190.5,233C 170.712,243.197 149.712,247.864 127.5,247C 105.376,242.194 94.2095,228.36 94,205.5C 92.2357,182.069 96.9023,160.069 108,139.5C 116.922,172.545 137.755,184.045 170.5,174C 192.505,160.873 199.339,142.04 191,117.5C 182.849,102.164 170.016,93.9978 152.5,93C 166.177,85.7213 180.51,80.5547 195.5,77.5 Z"/></g>
<g><path style="opacity:0.911" fill="#0D1C49" d="M 342.5,11.5 C 353.172,11.3335 363.839,11.5002 374.5,12C 381.224,13.0609 386.724,16.2276 391,21.5C 392.368,24.1863 393.701,26.853 395,29.5C 396.53,37.4357 396.863,45.4357 396,53.5C 388.046,58.3924 379.879,62.559 371.5,66C 360.667,52.5 349.833,39 339,25.5C 336.133,19.6297 337.3,14.9631 342.5,11.5 Z"/></g>

<g><path style="opacity:0.73" fill="#0D1C49" d="M 410.5,459.5 C 415.5,459.5 420.5,459.5 425.5,459.5C 421.075,468.162 415.742,476.329 409.5,484C 406.854,484.497 404.187,484.664 401.5,484.5C 401.34,482.801 401.506,481.134 402,479.5C 405.121,472.928 407.955,466.261 410.5,459.5 Z"/></g>
<g><path style="opacity:0.885" fill="#0D1C49" d="M 452.5,469.5 C 462.5,469.5 472.5,469.5 482.5,469.5C 482.5,495.167 482.5,520.833 482.5,546.5C 488.167,546.5 493.833,546.5 499.5,546.5C 499.807,552.093 499.473,557.593 498.5,563C 482.17,563.5 465.837,563.667 449.5,563.5C 449.5,557.833 449.5,552.167 449.5,546.5C 455.167,546.5 460.833,546.5 466.5,546.5C 466.5,526.5 466.5,506.5 466.5,486.5C 461.901,486.8 457.401,486.467 453,485.5C 452.501,480.177 452.334,474.844 452.5,469.5 Z"/></g>
<g><path style="opacity:0.824" fill="#0D1C49" d="M 528.5,469.5 C 533.833,469.5 539.167,469.5 544.5,469.5C 544.5,475.833 544.5,482.167 544.5,488.5C 539.167,488.5 533.833,488.5 528.5,488.5C 528.5,482.167 528.5,475.833 528.5,469.5 Z"/></g>
<g><path style="opacity:0.853" fill="#0D1C49" d="M 804.5,471.5 C 811.5,471.5 818.5,471.5 825.5,471.5C 827.805,486.132 829.971,500.799 832,515.5C 834.701,501.261 837.035,486.928 839,472.5C 841.381,471.565 843.881,471.232 846.5,471.5C 846.666,481.172 846.5,490.839 846,500.5C 843.002,521.82 840.168,543.154 837.5,564.5C 834.167,564.5 830.833,564.5 827.5,564.5C 825.569,548.48 823.402,532.48 821,516.5C 820.5,532.497 820.333,548.497 820.5,564.5C 815.167,564.5 809.833,564.5 804.5,564.5C 804.5,533.5 804.5,502.5 804.5,471.5 Z"/></g>
<g><path style="opacity:0.906" fill="#0D1C49" d="M 18.5,472.5 C 23.8333,472.5 29.1667,472.5 34.5,472.5C 34.5,496.5 34.5,520.5 34.5,544.5C 44.8333,544.5 55.1667,544.5 65.5,544.5C 65.5,550.833 65.5,557.167 65.5,563.5C 49.9221,563.824 34.4221,563.491 19,562.5C 18.5,532.502 18.3334,502.502 18.5,472.5 Z"/></g>
<g><path style="opacity:0.892" fill="#0D1C49" d="M 278.5,472.5 C 284.167,472.5 289.833,472.5 295.5,472.5C 303.262,502.047 311.262,531.547 319.5,561C 319.355,561.772 319.022,562.439 318.5,563C 313.167,563.667 307.833,563.667 302.5,563C 300.287,556.316 298.621,549.482 297.5,542.5C 290.468,542.17 283.468,542.503 276.5,543.5C 274.906,550.044 273.239,556.544 271.5,563C 266.167,563.667 260.833,563.667 255.5,563C 255.043,562.586 254.709,562.086 254.5,561.5C 262.911,531.934 270.911,502.268 278.5,472.5 Z"/></g>
<g><path style="opacity:0.869" fill="#0D1C49" d="M 336.5,474.5 C 342.167,474.5 347.833,474.5 353.5,474.5C 353.5,481.167 353.5,487.833 353.5,494.5C 359.167,494.5 364.833,494.5 370.5,494.5C 370.5,500.167 370.5,505.833 370.5,511.5C 364.833,511.5 359.167,511.5 353.5,511.5C 353.071,522.245 353.571,532.912 355,543.5C 356.167,544.667 357.333,545.833 358.5,547C 362.486,547.499 366.486,547.666 370.5,547.5C 370.5,553.167 370.5,558.833 370.5,564.5C 363.159,564.666 355.826,564.5 348.5,564C 341.126,561.117 337.292,555.617 337,547.5C 336.5,535.505 336.333,523.505 336.5,511.5C 331.901,511.8 327.401,511.467 323,510.5C 322.501,505.177 322.334,499.844 322.5,494.5C 327.167,494.5 331.833,494.5 336.5,494.5C 336.5,487.833 336.5,481.167 336.5,474.5 Z"/></g>
<g><path style="opacity:0.896" fill="#0D1C49" d="M 94.5,490.5 C 110.351,487.837 120.518,494.17 125,509.5C 127.128,517.983 127.628,526.483 126.5,535C 115.505,535.5 104.505,535.667 93.5,535.5C 93.2006,544.037 97.2006,547.871 105.5,547C 106.5,546 107.5,545 108.5,544C 114.157,543.501 119.824,543.334 125.5,543.5C 121.39,562.066 110.056,568.566 91.5,563C 83.0563,557.973 78.2229,550.473 77,540.5C 74.3384,526.09 76.3384,512.423 83,499.5C 86.1607,495.491 89.994,492.491 94.5,490.5 Z"/></g>
<g><path style="opacity:0.858" fill="#0D1C49" d="M 154.5,490.5 C 159.844,490.334 165.177,490.501 170.5,491C 181.655,494.794 186.655,502.627 185.5,514.5C 180.489,514.666 175.489,514.499 170.5,514C 168.743,508.62 165.076,506.62 159.5,508C 155.936,510.855 155.936,513.855 159.5,517C 185.224,519.623 193.058,532.789 183,556.5C 177.776,562.688 171.109,565.354 163,564.5C 146.928,564.428 138.762,556.262 138.5,540C 143.981,538.551 149.648,538.051 155.5,538.5C 156.018,546.179 160.018,549.012 167.5,547C 171.057,543.818 171.391,540.318 168.5,536.5C 161.68,534.771 155.013,532.604 148.5,530C 140.527,522.311 138.36,513.144 142,502.5C 144.744,496.921 148.911,492.921 154.5,490.5 Z"/></g>
<g><path style="opacity:0.892" fill="#0D1C49" d="M 402.5,490.5 C 419.583,487.765 430.083,494.765 434,511.5C 435.275,519.447 435.775,527.447 435.5,535.5C 424.147,535.168 412.814,535.501 401.5,536.5C 402.389,543.905 406.389,547.405 413.5,547C 414.91,546.632 415.91,545.799 416.5,544.5C 422.463,543.504 428.463,543.171 434.5,543.5C 429.659,561.926 417.992,568.426 399.5,563C 390.384,556.609 385.551,547.775 385,536.5C 383.033,522.962 385.366,510.295 392,498.5C 394.94,494.963 398.44,492.297 402.5,490.5 Z"/></g>
<g><path style="opacity:0.891" fill="#0D1C49" d="M 589.5,490.5 C 605.378,487.848 615.544,494.181 620,509.5C 621.985,517.995 622.485,526.495 621.5,535C 610.505,535.5 599.505,535.667 588.5,535.5C 588.249,544.087 592.249,547.921 600.5,547C 601.5,546 602.5,545 603.5,544C 609.157,543.501 614.824,543.334 620.5,543.5C 616.886,560.9 606.219,567.733 588.5,564C 578.776,559.255 573.276,551.422 572,540.5C 569.882,529.011 570.549,517.678 574,506.5C 576.711,498.624 581.878,493.291 589.5,490.5 Z"/></g>
<g><path style="opacity:0.848" fill="#0D1C49" d="M 661.5,490.5 C 672.692,487.672 679.858,491.672 683,502.5C 684.218,507.455 684.551,512.455 684,517.5C 678.593,518.473 673.093,518.807 667.5,518.5C 667.931,514.578 666.931,511.078 664.5,508C 658.585,506.894 655.085,509.394 654,515.5C 653.667,531.167 653.333,546.833 653,562.5C 647.593,563.473 642.093,563.807 636.5,563.5C 636.5,539.833 636.5,516.167 636.5,492.5C 642.167,492.5 647.833,492.5 653.5,492.5C 653.338,494.527 653.505,496.527 654,498.5C 656.028,495.308 658.528,492.641 661.5,490.5 Z"/></g>
<g><path style="opacity:0.854" fill="#0D1C49" d="M 710.5,490.5 C 730.281,486.845 740.614,494.845 741.5,514.5C 736.125,514.828 730.792,514.495 725.5,513.5C 724.044,508.272 720.711,506.439 715.5,508C 711.5,511 711.5,514 715.5,517C 741.205,519.58 749.038,532.746 739,556.5C 733.776,562.688 727.109,565.354 719,564.5C 709.887,565.442 702.887,562.109 698,554.5C 696.14,549.313 694.974,543.979 694.5,538.5C 700.167,538.5 705.833,538.5 711.5,538.5C 712.27,547.096 716.603,549.596 724.5,546C 727.425,542.304 727.092,538.971 723.5,536C 696.826,532.317 689.826,518.651 702.5,495C 705.099,493.205 707.766,491.705 710.5,490.5 Z"/></g>
<g><path style="opacity:0.877" fill="#0D1C49" d="M 514.5,494.5 C 524.5,494.5 534.5,494.5 544.5,494.5C 544.5,511.833 544.5,529.167 544.5,546.5C 549.833,546.5 555.167,546.5 560.5,546.5C 560.5,552.167 560.5,557.833 560.5,563.5C 544.163,563.667 527.83,563.5 511.5,563C 510.527,557.593 510.193,552.093 510.5,546.5C 516.5,546.5 522.5,546.5 528.5,546.5C 528.5,534.833 528.5,523.167 528.5,511.5C 523.901,511.8 519.401,511.467 515,510.5C 514.501,505.177 514.334,499.844 514.5,494.5 Z"/></g>
</svg>
 
 
