<svg version="1.0" xmlns="http://www.w3.org/2000/svg"
 width="683.000000pt" height="464.000000pt" viewBox="0 0 683.000000 464.000000"
 preserveAspectRatio="xMidYMid meet">
<metadata>
Created by potrace 1.16, written by Peter Selinger 2001-2019
</metadata>
<g transform="translate(0.000000,464.000000) scale(0.100000,-0.100000)"
fill="#0D1C40" stroke="none">
<path d="M1295 4468 c-3 -7 -6 -128 -7 -268 l-3 -255 -22 -3 c-23 -3 -23 -4
-23 -183 l0 -179 -45 0 -45 0 0 -75 0 -75 -81 0 c-61 0 -80 -3 -76 -12 2 -7
12 -39 21 -70 l16 -57 67 -3 c42 -2 68 -8 71 -15 3 -10 -13 -13 -57 -13 -38 0
-61 -4 -61 -11 0 -6 7 -35 16 -64 15 -53 16 -54 55 -57 50 -4 56 -22 8 -26
l-36 -3 15 -55 c12 -42 21 -56 39 -60 22 -6 23 -10 23 -104 0 -55 -4 -102 -10
-105 -6 -4 -10 -80 -10 -196 l0 -189 -185 0 -185 0 0 190 0 190 -165 0 -165 0
0 -520 0 -520 165 0 165 0 0 195 0 195 185 0 185 0 0 -195 0 -195 170 0 170 0
0 519 c0 336 -4 522 -10 526 -6 3 -10 50 -10 104 0 87 2 99 18 103 11 3 23 22
31 48 7 23 15 48 18 56 4 10 -3 14 -26 14 -46 0 -41 28 5 32 35 3 37 5 55 63
10 33 19 61 19 62 0 1 -26 3 -57 5 -79 4 -73 22 7 26 l65 3 21 69 22 70 -84 0
-83 0 -3 73 -3 72 -42 3 -43 3 0 179 c0 178 0 179 -22 182 l-23 3 -1 255 c0
140 -1 261 -2 268 -1 6 -11 12 -22 12 -11 0 -23 -6 -25 -12z m63 -1600 l3 -98
-41 0 -40 0 0 93 c0 52 3 97 7 101 4 4 21 6 38 4 l30 -3 3 -97z"/>
<path fill="#1877F2" d="M6024 3353 c-21 -32 -227 -341 -457 -688 -231 -346 -421 -636 -424
-642 -4 -10 41 -13 207 -13 198 0 212 -1 205 -17 -4 -10 -35 -92 -70 -183 -34
-91 -115 -300 -180 -465 -195 -502 -190 -478 -70 -290 42 66 105 163 141 215
182 269 694 1044 694 1052 0 4 -92 8 -205 8 -113 0 -205 2 -205 3 0 12 51 147
144 383 58 148 130 334 159 414 30 80 66 175 81 213 14 37 24 67 22 67 -2 0
-21 -26 -42 -57z"/>
<path  d="M5475 3054 c-11 -2 -45 -9 -75 -15 -82 -16 -226 -76 -305 -127 -202
-130 -362 -360 -411 -592 -21 -101 -18 -317 6 -419 34 -141 117 -297 220 -413
44 -50 207 -178 226 -178 11 0 52 127 43 133 -188 136 -301 289 -350 474 -33
121 -30 308 5 428 95 317 365 539 696 573 l74 7 18 60 c10 33 18 63 18 68 0 7
-128 8 -165 1z"/>
<path d="M5990 2932 c-25 -96 -25 -97 17 -122 175 -106 313 -287 365 -479 28
-102 30 -306 4 -401 -62 -228 -199 -401 -407 -513 -98 -54 -188 -78 -319 -85
l-114 -7 -12 -40 c-6 -22 -14 -52 -18 -67 l-6 -28 114 0 c429 0 815 313 902
733 23 110 20 319 -7 425 -55 225 -202 432 -394 557 -110 71 -112 72 -125 27z"/>
<path  d="M3150 2254 l0 -525 398 3 c390 3 398 3 447 26 103 47 165 139 165
245 0 128 -42 201 -143 247 l-60 27 33 12 c51 17 98 58 122 104 17 33 22 60
22 123 1 73 -2 85 -29 130 -37 59 -107 108 -175 123 -32 7 -191 11 -415 11
l-365 0 0 -526z m611 283 c45 -34 52 -105 14 -142 -23 -24 -29 -25 -155 -25
l-130 0 0 90 0 90 128 0 c84 -1 132 -5 143 -13z m8 -388 c37 -13 51 -35 51
-83 0 -83 -27 -96 -200 -96 l-130 0 0 95 0 95 124 0 c67 0 137 -5 155 -11z"/>
<path  d="M1698 2250 l2 -520 150 0 150 0 0 245 c0 134 -5 290 -11 345 -6 56
-9 103 -7 105 2 2 46 -152 99 -343 l96 -347 131 -3 131 -3 10 38 c6 21 50 181
98 355 48 175 88 316 91 314 2 -2 -1 -47 -7 -100 -6 -52 -11 -210 -11 -351 l0
-255 165 0 165 0 0 520 0 520 -229 0 c-210 0 -230 -1 -235 -17 -3 -10 -37
-143 -77 -295 -40 -153 -75 -278 -78 -278 -3 0 -37 118 -75 263 -38 144 -73
277 -78 295 l-9 32 -237 0 -237 0 3 -520z"/>
<path fill="#1877F2" d="M401 1504 c-39 -32 -49 -80 -26 -124 33 -64 -99 -60 1932 -58 2039 3
1879 -2 1906 67 18 44 11 75 -25 111 l-30 30 -1863 0 -1863 0 -31 -26z"/>
<path  d="M3515 1186 c-147 -36 -224 -125 -246 -281 -27 -198 47 -361 191 -417
43 -17 77 -21 160 -22 120 0 169 11 237 57 55 37 102 118 111 192 l5 45 -107
0 c-103 0 -106 -1 -106 -22 0 -97 -149 -144 -222 -70 -40 40 -57 134 -41 230
10 57 17 72 49 101 34 31 40 33 90 29 66 -6 100 -33 111 -92 l9 -41 107 -3
107 -3 0 29 c0 52 -29 127 -66 170 -80 93 -242 134 -389 98z"/>
<path d="M1750 1090 l0 -90 115 0 115 0 0 -265 0 -265 115 0 115 0 0 265 0
265 115 0 115 0 0 90 0 90 -345 0 -345 0 0 -90z"/>
<path fill="#18" d="M2550 825 l0 -355 310 0 310 0 0 85 0 85 -200 0 -200 0 0 55 0 55
165 0 165 0 0 80 0 80 -162 2 -163 3 -3 48 -3 47 195 0 196 0 0 85 0 85 -305
0 -305 0 0 -355z"/>
<path fill="#" d="M4100 825 l0 -355 110 0 110 0 0 135 0 135 130 0 130 0 0 -135 0
-135 110 0 110 0 0 355 0 355 -110 0 -110 0 0 -130 0 -130 -130 0 -130 0 0
130 0 130 -110 0 -110 0 0 -355z"/>
</g>
</svg>