<svg width="683" height="464" xmlns="http://www.w3.org/2000/svg" version="1.0"><g><title>HMB-TECH</title><g stroke="null" fill="#0D1C40" id="svg_1"><path fill="#000030" stroke="#000030" d="m129.4681,16.22392c-0.30903,0.71395 -0.61806,13.05511 -0.72107,27.33413l-0.30903,26.00822l-2.26621,0.30598c-2.36922,0.30598 -2.36922,0.40797 -2.36922,18.66472l0,18.25675l-9.27085,0l0,15.29895l-8.34377,0c-6.28358,0 -8.24076,0.30598 -7.82872,1.22392c0.20602,0.71395 1.23611,3.97773 2.1632,7.13951l1.64815,5.8136l6.90163,0.30598c4.3264,0.20399 7.00464,0.81594 7.31367,1.5299c0.30903,1.01993 -1.33912,1.32591 -5.87154,1.32591c-3.91436,0 -6.28358,0.40797 -6.28358,1.12192c0,0.61196 0.72107,3.56976 1.64815,6.52755c1.54514,5.40563 1.64815,5.50762 5.66552,5.8136c5.15047,0.40797 5.76853,2.24385 0.82408,2.65182l-3.70834,0.30598l1.54514,5.60962c1.23611,4.28371 2.1632,5.71161 4.01737,6.11958c2.26621,0.61196 2.36922,1.01993 2.36922,10.60727c0,5.60962 -0.41204,10.40329 -1.03009,10.70927c-0.61806,0.40797 -1.03009,8.15944 -1.03009,19.99063l0,19.27668l-38.1135,0l0,-38.75735l-33.99312,0l0,106.07275l33.99312,0l0,-39.77728l38.1135,0l0,39.77728l35.02322,0l0,-52.93438c0,-34.26966 -0.41204,-53.24036 -1.03009,-53.64833c-0.61806,-0.30598 -1.03009,-5.09965 -1.03009,-10.60727c0,-8.87339 0.20602,-10.09731 1.85417,-10.50528c1.1331,-0.30598 2.36922,-2.24385 3.19329,-4.89567c0.72107,-2.34584 1.54514,-4.89567 1.85417,-5.71161c0.41204,-1.01993 -0.30903,-1.4279 -2.67825,-1.4279c-4.73844,0 -4.22339,-2.8558 0.51505,-3.26378c3.60533,-0.30598 3.81135,-0.50997 5.66552,-6.42556c1.03009,-3.36577 1.95718,-6.22157 1.95718,-6.32357c0,-0.10199 -2.67825,-0.30598 -5.87154,-0.50997c-8.13775,-0.40797 -7.51969,-2.24385 0.72107,-2.65182l6.69562,-0.30598l2.1632,-7.03752l2.26621,-7.13951l-17.20258,0l-0.30903,-7.44549l-0.30903,-7.3435l-4.3264,-0.30598l-4.42941,-0.30598l0,-18.25675c0,-18.15476 0,-18.25675 -2.26621,-18.56273l-2.36922,-0.30598l-0.10301,-26.00822c0,-14.27902 -0.10301,-26.62018 -0.20602,-27.33413c-0.10301,-0.61196 -1.1331,-1.22392 -2.26621,-1.22392s-2.36922,0.61196 -2.57524,1.22392zm6.4896,163.18884l0.30903,9.99532l-8.34377,0l0,-9.48535c0,-5.30364 0.30903,-9.89332 0.72107,-10.3013c0.41204,-0.40797 2.1632,-0.61196 3.91436,-0.40797l3.09028,0.30598l0.30903,9.89332z" id="svg_2"/>
   <path stroke="null" fill="#150DA0" d="m601.3398,121.75184l-10.88645,12.90452l-17.62725,21.00276a4286.47531,4307.75476 0 0 0 -69.76307,85.30202l-10.63902,13.42019c-3.11198,3.79673 -3.63614,4.81354 -2.62446,5.34009l24.19788,0.60069c21.90876,0.31202 23.94679,0.34104 23.93946,0.85308l-1.58713,4.07452a1955.99414,1965.70433 0 0 1 -24.77833,57.77499a3646.28082,3664.38214 0 0 0 -13.97813,33.09002c-0.26574,0.76443 -0.26574,0.76443 0.23644,1.28372l0.75693,0.52292c0.50951,0.00726 3.87624,-3.78584 10.10388,-11.63532l8.04021,-9.87222l9.85279,-11.89497l12.44428,-14.9309a3977.20507,3996.94921 0 0 0 59.3788,-71.8782a1531.32076,1538.92273 0 0 1 15.04675,-18.73488l0.01465,-1.02407c-0.25109,-0.25965 -2.0307,-0.54106 -24.19422,-0.85671c-20.88975,-0.29751 -23.94313,-0.59706 -23.68471,-0.84945l22.17952,-54.22702l16.62823,-40.22223l-0.49852,-0.77531c-0.75693,-0.52292 -1.52486,-0.27779 -2.55852,0.73177" id="svg_3"/><path stroke="null" fill="#ffffff" d="m568.68323,187.35443l-1.07138,2.00642c-1.9423,3.2287 -2.14967,3.82141 -2.06675,6.11857c0.0691,1.91429 0.0691,1.91429 -1.47229,3.57471l-2.60586,3.85827l-2.61277,3.66684c-1.54139,1.66041 -3.29015,3.91354 -3.49061,4.69769l0.08292,2.29715c0.06219,1.72286 0.06219,1.72286 -0.80873,2.94514c-1.09902,1.2407 -2.39159,3.45698 -2.37086,4.03127l1.20267,1.63074l1.19576,1.43931l1.20267,1.63074l1.27177,3.54503l0.76721,2.24188c0.48383,0.72887 0.76721,2.24188 0.85013,4.53903l0.55293,2.64316l4.41675,1.94707c0.68429,-0.05528 1.13357,-0.28356 2.91688,-1.57954l3.33852,-2.57354c1.32712,-1.25913 2.45378,-1.73412 3.37307,-1.61639l2.08742,0.79132c2.09433,0.98275 2.78553,1.1189 6.43507,0.82409l3.42836,-0.08495c0.69811,0.32758 -0.64974,1.01242 -3.36616,1.80782c-2.26023,0.75854 -2.72334,0.60397 -4.34074,0.15866s-2.75789,-0.35318 -3.87073,0.50466c-0.89165,0.64799 -1.76258,1.87027 -2.17731,3.0557c-0.20737,0.59271 -0.19355,0.97557 0.29029,1.70444l0.0691,1.91429c-0.19355,0.97557 -1.49302,3.00042 -3.02751,4.85226c-1.52757,2.04327 -1.74185,2.44456 -1.90084,4.37728s-0.36636,2.52543 -3.44915,5.84626c-3.07588,3.51226 -2.87542,2.72811 -3.15886,7.5507c-0.31799,3.86544 -1.4101,5.29757 -4.81082,6.14825c-1.81786,0.33883 -2.70261,1.17825 -4.47209,2.85709c-1.32712,1.25913 -1.75567,2.0617 -2.84087,3.68526l-1.25802,3.17342c-1.05756,2.38928 -2.3985,3.26555 -5.57803,3.90637c-2.04596,0.35726 -2.94452,0.81382 -4.73474,1.91837c-1.78331,1.29598 -2.03214,0.74012 -0.71193,-0.71044c1.10593,-1.04927 3.34543,-2.38211 5.15638,-2.91237l1.79713,-0.91312c0.44928,-0.22828 1.28566,-2.40771 2.75795,-5.98242c0.82946,-2.37086 1.05065,-2.58071 2.82705,-4.06812c2.88924,-2.34526 3.79472,-2.61039 5.83376,-3.15908c2.73025,-0.41254 3.78781,-2.80182 2.96531,-6.57513c-0.54602,-2.45173 -0.33175,-2.85302 1.88702,-4.76014c2.66114,-2.32683 3.54589,-3.16625 4.41681,-4.38853s0.86401,-1.41371 1.03683,-2.96357l0.16591,-1.74129l1.09211,-1.43213c1.32712,-1.25913 1.3133,-1.64199 1.25802,-3.17342c-0.31102,-2.27873 -1.25104,-2.97074 -4.26467,-4.07122l-3.95365,-1.79249c-2.33624,-1.34718 -2.33624,-1.34718 -4.3822,-0.98992l-3.86382,0.69609l-2.28096,0.18426c-0.92621,-0.30916 -3.42836,0.08495 -5.45358,1.0165c-1.81095,0.53026 -2.26714,0.56711 -7.50645,1.18233l-6.82907,0.93563c-1.80404,0.72169 -2.72334,0.60397 -2.75789,-0.35318c-0.02073,-0.57429 3.06897,-3.70369 4.638,-4.59838l3.59426,-1.82624l2.92379,-1.38811c0.44237,-0.41971 0.83637,-2.17943 0.76727,-4.09372c-0.04146,-1.14858 -0.06219,-1.72286 -0.55293,-2.64316c-0.97458,-1.64916 -0.98149,-1.84059 -0.13129,-3.63716c0.62901,-1.58671 0.84328,-1.988 2.81323,-4.45098l1.52757,-2.04327c0.43546,-0.61114 1.57594,-0.70327 2.50906,-0.20268c1.63122,0.82817 2.32242,0.96432 3.23481,0.89062s1.13357,-0.28356 2.90997,-1.77097l2.21186,-2.09855l0.37327,-2.334l0.34563,-3.09972c0.63592,-1.39528 2.16349,-3.43856 3.93298,-5.1174c1.32712,-1.25913 1.76258,-1.87027 2.60586,-3.85827l1.92848,-3.61156l1.28566,-2.40771c1.00919,-3.72929 1.44465,-4.34043 4.09198,-7.05012c1.32712,-1.25913 1.7764,-1.48741 1.80404,-0.72169" id="svg_4"/><path stroke="null" fill="#000030" d="m538.3391,140.43149a93.84276,94.27935 0 0 0 -58.56172,26.04135a102.003,102.47755 0 0 0 -32.16094,88.49238c3.3601,22.18338 12.48037,40.7499 28.56084,57.14631c6.9602,6.75146 14.16042,12.29731 22.08065,16.87866c1.92006,1.20562 2.16006,1.20562 2.40007,0.72337c0.72002,-0.48225 5.28016,-12.53843 5.28016,-13.02068s-1.20004,-1.20562 -3.3601,-2.89348a97.44286,97.8962 0 0 1 -26.16077,-25.80023a79.44233,79.81193 0 0 1 -14.16042,-47.26024a85.44251,85.84002 0 0 1 102.003,-84.39328c0.48001,0 0.96003,-0.24112 6.7202,-7.47483c2.88008,-3.61685 3.84011,-4.82247 3.60011,-5.0636c-0.72002,-0.72337 -9.84029,-2.41124 -16.08047,-3.13461l-20.4006,0m58.80173,14.2263l-2.64008,6.51034l-1.92006,5.30472l5.28016,4.0991a86.16253,86.56339 0 0 1 36.00106,67.2735c0.24001,12.53843 -1.44004,22.66562 -5.76017,33.51619c-4.80014,12.29731 -13.44039,24.59461 -22.32066,32.79282a81.36239,81.74092 0 0 1 -67.20197,20.97776c-4.56013,-0.72337 -3.60011,-0.96449 -6.24018,2.41124l-4.32013,5.30472l-2.64008,3.61685c-0.48001,0.72337 -0.72002,0.96449 -0.48001,1.20562c0.48001,0.72337 9.36028,2.41124 14.88044,2.89348a91.9227,92.35036 0 0 0 65.28192,-16.39641c8.64025,-6.02809 15.36045,-12.29731 22.32066,-20.73663c11.04032,-13.2618 17.76052,-27.97034 20.88061,-45.81349a98.40289,98.8607 0 0 0 -50.16147,-104.40654l-0.96003,1.44674" id="svg_5"/><path fill="#000030" stroke="null" d="m320.55066,243.03647l0,53.54634l40.99777,-0.30598c40.17369,-0.30598 40.99777,-0.30598 46.04523,-2.65182c10.60997,-4.79367 16.99656,-14.17703 16.99656,-24.98829c0,-13.05511 -4.3264,-20.5006 -14.73035,-25.19228l-6.18057,-2.75381l3.39931,-1.22392c5.25348,-1.73388 10.09493,-5.9156 12.56715,-10.60727c1.75116,-3.36577 2.26621,-6.11958 2.26621,-12.54514c0.10301,-7.44549 -0.20602,-8.66941 -2.98727,-13.25909c-3.81135,-6.01759 -11.02201,-11.01525 -18.02666,-12.54514c-3.2963,-0.71395 -19.67481,-1.12192 -42.74893,-1.12192l-37.59845,0l0,53.64833zm62.93878,-28.86403c4.63543,3.46776 5.35649,10.70927 1.44213,14.48301c-2.36922,2.44783 -2.98727,2.54983 -15.96647,2.54983l-13.39123,0l0,-18.35874l13.18521,0c8.65279,0.10199 13.59725,0.50997 14.73035,1.32591zm0.82408,39.57329c3.81135,1.32591 5.25348,3.56976 5.25348,8.46542c0,8.46542 -2.78126,9.79133 -20.60189,9.79133l-13.39123,0l0,-19.37867l12.77317,0c6.90163,0 14.1123,0.50997 15.96647,1.12192z" id="svg_6"/><path fill="#000030" stroke="#000030" d="m170.98092,243.44444l0.20602,53.03637l30.90284,0l0,-24.98829c0,-13.66707 -0.51505,-29.57798 -1.1331,-35.18759c-0.61806,-5.71161 -0.92709,-10.50528 -0.72107,-10.70927c0.20602,-0.20399 4.73844,15.50294 10.19794,34.98361l9.88891,35.39158l13.49424,0.30598l13.49424,0.30598l1.03009,-3.87573c0.61806,-2.14185 5.15047,-18.46074 10.09493,-36.20752c4.94445,-17.84878 9.06483,-32.2298 9.37386,-32.02581c0.20602,0.20399 -0.10301,4.79367 -0.72107,10.1993c-0.61806,5.30364 -1.1331,21.41854 -1.1331,35.79955l0,26.00822l33.99312,0l0,-106.07275l-23.58917,0c-21.63199,0 -23.69218,0.10199 -24.20722,1.73388c-0.30903,1.01993 -3.81135,14.585 -7.93173,30.08794c-4.12038,15.60493 -7.72571,28.35406 -8.03474,28.35406c-0.30903,0 -3.81135,-12.03518 -7.72571,-26.82417c-3.91436,-14.687 -7.51969,-28.25207 -8.03474,-30.08794l-0.92709,-3.26378l-48.82649,0l0.30903,53.03637z" id="svg_7"/><path stroke="null" fill="#150da0" d="m37.37765,319.53124c-4.01737,3.26378 -5.04746,8.15944 -2.67825,12.64714c3.39931,6.52755 -10.19794,6.11958 199.01428,5.9156c210.03629,-0.30598 193.55478,0.20399 196.33604,-6.83353c1.85417,-4.48769 1.1331,-7.64948 -2.57524,-11.32123l-3.09028,-3.05979l-383.81326,0l-3.19329,2.65182z" id="svg_8"/><path fill="#000030" stroke="null" d="m356.08892,351.96502c-15.14239,3.67175 -23.07412,12.74913 -25.34033,28.66004c-2.78126,20.19462 4.84144,36.81948 19.67481,42.53109c4.42941,1.73388 7.93173,2.14185 16.48151,2.24385c12.36114,0 17.4086,-1.12192 24.41324,-5.8136c5.66552,-3.77374 10.50697,-12.03518 11.43405,-19.58266l0.51505,-4.58969l-11.02201,0c-10.60997,0 -10.919,0.10199 -10.919,2.24385c0,9.89332 -15.34841,14.687 -22.8681,7.13951c-4.12038,-4.07972 -5.87154,-13.66707 -4.22339,-23.4584c1.03009,-5.8136 1.75116,-7.3435 5.04746,-10.3013c3.50232,-3.16178 4.12038,-3.36577 9.27085,-2.9578c6.79862,0.61196 10.30095,3.36577 11.43405,9.38336l0.92709,4.18171l11.02201,0.30598l11.02201,0.30598l0,-2.9578c0,-5.30364 -2.98727,-12.95311 -6.79862,-17.33881c-8.24076,-9.48535 -24.92829,-13.66707 -40.07068,-9.99532z" id="svg_9"/><path fill="#000030" stroke="null" d="m176.33741,361.75635l0,9.17938l23.69218,0l0,54.0563l23.69218,0l0,-54.0563l23.69217,0l0,-18.35875l-71.07653,0l0,9.17937z" id="svg_10"/><path stroke="null" fill="#000030" d="m258.74498,388.7845l0,36.20752l63.86587,0l0,-17.33881l-41.20378,0l0,-11.21923l33.99312,0l0,-16.31888l-16.68753,-0.20399l-16.79054,-0.30598l-0.30903,-4.89567l-0.30903,-4.79367l40.2767,0l0,-17.33881l-62.83577,0l0,36.20752z" id="svg_11"/><path stroke="null" fill="#000030" d="m418.40965,388.7845l0,36.20752l22.66208,0l0,-27.53812l26.78246,0l0,27.53812l22.66208,0l0,-72.41505l-22.66208,0l0,26.51819l-26.78246,0l0,-26.51819l-22.66208,0l0,36.20752z" id="svg_12"/></g></g></svg>