<?xml version="1.0" encoding="utf-8"?>
<!DOCTYPE svg PUBLIC "-//W3C//DTD SVG 1.0//EN" "http://www.w3.org/TR/2001/REC-SVG-20010904/DTD/svg10.dtd">
<svg version="1.0" xmlns="http://www.w3.org/2000/svg" width="800px" height="800px" viewBox="0 0 800 800" preserveAspectRatio="xMidYMid meet">
 <g fill="none" stroke="#08273a" stroke-width="1">
  <path d="M434.2 542.9 c-11.8 -2.3 -23.1 -10.8 -27.5 -20.7 -7.6 -17 -4.4 -36.4 8 -48.3 7.9 -7.7 16.8 -11.1 28.6 -11 6.3 0 15.4 2.3 19.6 4.8 4.5 2.8 10.2 8.7 12.2 12.6 2.8 5.3 1.2 6.7 -7.8 6.7 -6.7 0 -6.8 -0.1 -9 -3.5 -2.8 -4.3 -7 -6.5 -13.7 -7.2 -7.6 -0.8 -13 1.1 -18.1 6.2 -5.7 5.7 -7.9 12.8 -7.3 23.4 0.6 9 3 14.5 8.5 19 9 7.5 24.2 6.5 30.4 -1.8 2.2 -3 2.5 -3.1 10 -3.1 4.3 0 8.1 0.5 8.4 1 0.9 1.5 -3.9 9.2 -8 12.9 -5.2 4.5 -12.1 7.7 -19.6 9 -7.3 1.2 -8.6 1.2 -14.7 0z"/>
  <path d="M275.8 509.8 l-0.3 -32.3 -12.2 -0.3 -12.3 -0.3 0 -6.4 0 -6.5 33 0 33 0 0 6.5 0 6.5 -12.5 0 -12.5 0 0 3.3 c0 1.7 -0.1 16.4 -0.2 32.5 l-0.2 29.2 -7.8 0 -7.8 0 -0.2 -32.2z"/>
  <path d="M333 503 l0 -39 27.5 0 27.5 0 0 6.3 0 6.2 -18.9 0 c-10.4 0 -19.3 0.3 -19.7 0.8 -0.4 0.4 -0.8 4.9 -0.8 10 l-0.1 9.2 16.8 0.3 c13.9 0.2 16.7 0.5 16.7 1.7 0 0.8 0.5 1.5 1 1.5 0.6 0 1 1.3 1 2.9 0 6.2 0.3 6.1 -18 6.1 l-16.9 0 -0.6 4.3 c-0.4 2.3 -0.5 6.9 -0.3 10.2 l0.3 6 19.6 0.3 19.7 0.2 -0.2 6 -0.1 6 -27.2 0 -27.3 0 0 -39z"/>
  <path d="M493 503 l0 -39 8 0 8 0 0 16 0 16 17.3 -0.2 17.2 -0.3 0 -15.8 0 -15.7 7.8 0 7.7 0 0 39 0 39 -7.7 0 -7.8 0 0 -16.2 0 -16.3 -17.2 -0.3 -17.3 -0.2 0 16.5 0 16.5 -8 0 -8 0 0 -39z"/>
  <path d="M620.5 440.9 c-9.2 -1.3 -9.1 -1.3 -5.2 -6.6 l3.5 -4.8 10.9 0.3 c27.2 0.8 49.4 -10.2 66.3 -33 19.1 -25.6 19.9 -60.9 2.1 -88.1 -5.1 -7.6 -16.1 -18.8 -22.4 -22.6 -4 -2.5 -4.1 -2.6 -1.1 -9.8 0.8 -1.8 1.7 -3.3 2 -3.3 0.3 0 3 1.6 6.1 3.7 12.9 8.6 24.5 22 31.2 36.4 6.7 14.3 7.6 18.9 7.6 39.4 -0.1 17.1 -0.2 18.4 -2.8 26 -15.1 43.1 -55.2 68.6 -98.2 62.4z"/>
  <path d="M580.9 425.9 c-9.2 -6.3 -13.5 -10.3 -21 -19.7 -6.7 -8.4 -12.8 -20.3 -15.9 -31.2 -3.1 -10.7 -3.8 -30.1 -1.6 -40.6 9 -41.4 41.6 -70 83.1 -73 7.9 -0.6 24.2 0.9 25.6 2.3 0.4 0.5 -0.7 2.8 -2.6 5.3 l-3.3 4.4 -12.4 -0.2 c-10 -0.3 -13.8 0.1 -20.2 1.8 -28.7 7.6 -49.9 29 -57.2 57.7 -4.6 18.4 -2.3 38.1 6.6 55.1 6.6 12.8 14.5 21.4 28.7 31.2 l2.2 1.5 -2.3 5.3 -2.2 5.2 -7.5 -5.1z"/>
 </g>
 <g fill="none" stroke="#006ad0" stroke-width="1">
  <path d="M590.6 450 c1.4 -3.6 5.1 -12.3 8.1 -19.5 11.3 -26.7 24.3 -58.7 24.3 -59.7 0 -0.4 -9.2 -0.8 -20.5 -0.8 -11.3 0 -20.5 -0.2 -20.5 -0.5 0 -0.6 17.5 -23.5 51.5 -67.5 10.4 -13.5 24.2 -31.4 30.7 -39.9 6.5 -8.4 11.8 -15.2 11.8 -14.9 0 0.2 -1.8 4.9 -4.1 10.3 -2.2 5.5 -6.9 17 -10.4 25.5 -3.4 8.5 -9.2 22.8 -12.9 31.7 -3.6 9 -6.6 16.7 -6.6 17.3 0 0.6 7.8 1.1 20.4 1.2 l20.4 0.3 -18.6 24.2 c-30.3 39.2 -39.8 51.5 -57.6 74.8 -9.2 12.1 -17.2 22.4 -17.7 23 -0.5 0.5 0.2 -2 1.7 -5.5z m32.2 -44.3 c1.1 -1.2 2.8 -3.9 3.7 -6 0.9 -2.3 2.6 -4.2 4.3 -4.9 4.9 -2.1 6.2 -3.8 6.2 -8.5 0 -2.3 -0.4 -4.3 -1 -4.3 -1.1 0 -1.1 0.1 -1.5 4 -0.1 1.3 -0.6 2.5 -1.1 2.7 -4.4 1.5 -7.7 4.9 -10.1 10.3 -1.4 3.3 -3.1 6 -3.7 6 -0.7 0 -2.1 0.7 -3.2 1.5 -1.8 1.4 -1.7 1.4 1.2 1.5 1.9 0 3.8 -0.8 5.2 -2.3z m22.9 -38.7 c1.3 -2.4 2.3 -6 2.3 -8 0 -5 1.4 -6 8.3 -6 4.2 0 5.8 -0.3 5.4 -1.2 -0.2 -0.7 -1.2 -1.3 -2.3 -1.3 -1.1 0 -3.8 -0.9 -6.2 -1.9 -3.7 -1.7 -4.6 -1.7 -6.8 -0.6 -1.5 0.8 -2.8 2.6 -3.1 4.2 -0.5 2.3 -0.9 2.7 -2.7 2.2 -1.1 -0.3 -2.8 -1.4 -3.8 -2.5 -2 -2.3 -3.4 -2.4 -4.2 -0.3 -0.7 1.9 2.1 4.3 6.9 5.9 2.6 0.9 3 1.5 3 4.5 -0.1 1.9 -0.5 5 -0.9 6.9 -1.1 4.7 1.2 3.7 4.1 -1.9z m-26.1 -29.8 c0.9 -2.4 1.6 -2.7 4.8 -2.6 2 0.1 4.6 1 5.7 2 2.5 2.3 3.5 1.2 2 -2.5 -1 -2.3 -1 -3.3 0 -5 1.1 -1.6 1.1 -2.3 0.1 -3.3 -1 -1 -1.8 -0.6 -3.8 2 -2.1 2.6 -2.9 3 -4 2.1 -2.9 -2.4 -9.5 4.9 -8 8.8 0.8 2.1 2.1 1.5 3.2 -1.5z m25.5 -37.5 c1.5 -3.7 1.6 -4.7 0.5 -4.7 -0.8 0 -1.6 0.8 -1.9 1.8 -0.3 0.9 -1 3.2 -1.6 5 -1.6 5.2 0.8 3.5 3 -2.1z"/>
  <path d="M100.8 444.3 l-6.8 -0.4 0 -6.3 0 -6.3 7.7 -0.7 c4.2 -0.3 91.2 -0.6 193.3 -0.6 102.1 0 189.1 0.3 193.3 0.6 l7.7 0.7 0 6.2 0 6.2 -7.7 0.7 c-7.6 0.6 -374.9 0.5 -387.5 -0.1z"/>
  <path d="M95.5 351.1 l0 -62.1 13.9 0 13.9 0 -0.6 12.5 c-0.4 6.9 -0.4 18.1 0 25 l0.6 12.5 26.4 0 26.3 0 0 -25 0 -25 13.5 0 13.5 0 0 61.5 0 61.5 -9.7 0 c-5.4 0 -11.5 0.3 -13.5 0.6 l-3.8 0.7 0 -25.7 0 -25.6 -26.4 0 -26.4 0 -0.7 15.8 c-0.4 8.6 -0.5 19.9 -0.2 25 l0.6 9.2 -10.2 0 c-5.6 0 -11.8 0.3 -13.7 0.6 l-3.5 0.6 0 -62.1z"/>
  <path d="M229.9 412 c-1.2 -0.8 -2.1 -66.8 -1.3 -97.2 l0.7 -25.8 16.7 0 16.7 0 5.3 12.8 c2.9 7 7.2 17.2 9.5 22.7 2.3 5.5 7.7 18.5 12 28.8 4.3 10.3 8.2 18.6 8.7 18.5 0.5 -0.2 1.9 -2.8 3.2 -5.8 1.2 -3 9.2 -21.6 17.6 -41.3 l15.4 -35.7 16.1 0 16.2 0 0 47.3 c-0.1 25.9 -0.2 53.7 -0.4 61.7 l-0.4 14.5 -11.2 0 -11.2 0 0.1 -42.7 c0.1 -32.7 -0.2 -42.8 -1.1 -42.8 -0.7 0 -8.7 17 -17.7 37.8 l-16.5 37.7 -10.4 0 -10.3 0 -4 -9.2 c-2.3 -5 -9.7 -22 -16.6 -37.7 -6.9 -15.7 -12.9 -28.4 -13.3 -28.3 -0.4 0.1 -0.8 19.2 -0.7 42.4 l0 42.2 -11.1 0.3 c-6.1 0.2 -11.5 0.1 -12 -0.2z"/>
  <path d="M392.7 412.4 c-0.4 -0.4 -0.7 -28.3 -0.7 -62.1 l0 -61.3 29.8 0 c16.3 0 32.6 0.5 36.1 1.1 21.8 3.5 35 22.7 28.4 41.2 -2 5.6 -7.2 12.1 -11.4 14.3 -3.7 1.8 -3.7 2.8 0.1 4.4 5 2.1 12.7 10.7 15 16.7 5.7 15.2 -0.8 33.1 -14.7 40.1 -9.6 4.8 -14.9 5.5 -49.4 5.9 -17.9 0.2 -32.8 0 -33.2 -0.3z m67.1 -24.2 c6.8 -3.4 9.4 -14 5.2 -20.9 -3.8 -6.3 -7.6 -7.3 -28.5 -7.3 l-18.5 0 -0.1 9.3 c-0.1 12.2 0.2 20 0.7 20.9 0.3 0.4 8.8 0.5 19 0.3 15.7 -0.3 19.1 -0.7 22.2 -2.3z m-7.6 -50.4 c2.1 -0.6 5.2 -2.7 6.8 -4.5 2.6 -3 3 -4.1 3 -9.6 0 -7 -1.3 -9.2 -7.3 -12.4 -2.7 -1.5 -5.8 -1.8 -19.7 -1.8 l-16.5 0 -0.6 7 c-0.3 3.9 -0.4 10.5 -0.1 14.8 l0.5 7.7 15 0 c8.6 0 16.6 -0.5 18.9 -1.2z"/>
 </g>
</svg>