<?xml version="1.0" encoding="utf-8"?>
<!DOCTYPE svg PUBLIC "-//W3C//DTD SVG 1.0//EN" "http://www.w3.org/TR/2001/REC-SVG-20010904/DTD/svg10.dtd">
<svg version="1.0" xmlns="http://www.w3.org/2000/svg" width="800px" height="800px" viewBox="0 0 800 800" preserveAspectRatio="xMidYMid meet">
 <g fill="#081a28" fill-rule="evenodd">
  <path d="M435.60 544.45 C434.30 544.15 431.10 543.25 428.55 542.40 L423.90 540.90 420.40 538.80 L416.90 536.75 413.90 534.05 L410.90 531.35 408.55 527.80 C405.30 522.90 404.50 521.05 402.60 514.50 L401.80 511.75 401.75 503.50 L401.75 495.25 402.40 493 C404.95 484.80 405.30 484 408.50 479.25 L410.90 475.75 413.80 472.90 C419.60 467.35 425.60 464.25 434.25 462.40 L437.25 461.80 442.75 461.75 L448.25 461.75 451.75 462.40 L455.25 463.10 459.55 464.95 L463.90 466.80 466.40 468.70 L468.95 470.55 471.50 473.40 L474.05 476.25 476 480.25 L478 484.25 478.10 485.75 L478.25 487.25 468.85 487.35 L459.50 487.50 458.55 485.60 L457.55 483.70 455.25 481.55 L452.90 479.40 450.75 478.45 L448.65 477.50 445.15 477.15 L441.65 476.85 438.20 477.45 L434.80 478.05 432 479.40 L429.25 480.75 426.90 483 L424.60 485.30 422.85 489 L421.05 492.75 420.50 495.35 L420 498 420 503.60 L420 509.25 420.50 511.50 L421 513.75 422.55 516.90 L424.15 520.10 426.70 522.65 L429.25 525.25 431.65 526.40 C433 527.05 435.20 527.90 436.65 528.30 L439.25 528.95 442.40 528.95 L445.60 529 447.65 528.40 C448.80 528.10 450.50 527.50 451.45 527.10 L453.15 526.35 455.30 524.35 C456.50 523.25 457.95 521.60 458.50 520.65 L459.55 519 469.25 519 L479 519 479 519.55 C479 519.90 478.10 521.95 477 524.20 L475.05 528.25 472.80 530.85 C471.55 532.30 469.35 534.50 467.90 535.75 L465.30 537.95 461.45 539.95 L457.60 541.95 454.65 542.75 C453.05 543.20 449.85 543.90 447.60 544.30 L443.50 545 440.75 545 L438 545 435.60 544.45 "/>
  <path d="M275 510.75 L275 478.55 274.50 478.25 L274 477.90 261.95 477.90 L249.95 477.90 250.10 470.55 L250.25 463.25 284.10 463.10 L318 462.95 318 470.45 L318 478 305.85 478 L293.75 478 293.10 478.40 L292.45 478.80 292.60 488.65 C292.65 494.05 292.60 498.50 292.50 498.50 C292.35 498.50 292.15 508.35 292.10 520.45 L292 542.50 283.50 542.75 L275 543 275 510.75 "/>
  <path d="M332.10 503.10 L332.25 463.25 360.25 463.25 L388.25 463.25 388.25 470.50 L388.25 477.75 368.85 477.85 L349.50 478 349.50 487 L349.50 496 367.25 496 L385 496 385 503 L385 510 367.25 510 L349.50 510 349.50 519.25 L349.50 528.50 350.10 528.75 C350.45 528.90 359.20 529.05 369.50 529.10 L388.25 529.25 388.10 535.85 L388 542.50 360 542.75 L332 543 332.10 503.10 "/>
  <path d="M492.10 503.10 L492.25 463.25 500.75 463.25 L509.25 463.25 509.50 479 L509.75 494.75 525.55 494.85 L541.35 495 541.85 494.35 L542.40 493.75 542.55 486 C542.65 481.70 542.60 475.05 542.50 471.20 L542.30 464.20 542.65 463.60 L543.05 463 551.45 463 L559.90 463 560.05 463.80 C560.15 464.25 560.15 482.30 560.10 503.80 L559.95 543 551.10 542.85 L542.25 542.75 542.40 542 C542.45 541.60 542.55 534.55 542.55 526.30 L542.50 511.30 542.05 510.85 L541.60 510.40 525.90 510.45 C517.30 510.45 510.05 510.45 509.85 510.45 L509.50 510.50 509.25 526.50 L509 542.50 500.50 542.75 L492 543 492.10 503.10 "/>
  <path d="M624.85 442.70 C624.25 442.55 621.55 442.10 618.95 441.70 C614.25 440.95 610.50 439.90 610.30 439.35 C610.20 438.95 616.70 430.45 618.20 429 L619.45 427.85 622.35 428.45 L625.25 429.05 633.50 428.80 L641.75 428.55 644.75 428.05 C649.10 427.30 654.50 426.05 656.25 425.45 C665.15 422.10 672.85 418 679.50 412.95 L683.25 410.10 687.25 405.90 C700.10 392.55 706.70 379.10 709.45 360.60 L710 356.95 710 350.95 L710 344.90 708.95 339.20 L707.95 333.50 705.90 327.35 L703.85 321.25 701.90 317.30 C700.80 315.15 698.45 311.10 696.60 308.30 L693.25 303.25 688.50 298.30 L683.75 293.35 680.25 290.75 C678.30 289.30 675.45 287.30 673.85 286.25 L671 284.45 670.95 283.60 C670.95 282.80 673.10 276.90 674.85 273.05 L675.55 271.40 676.45 271.60 C676.95 271.75 680.15 273.75 683.55 276 L689.75 280.20 697 287.45 L704.25 294.75 708.05 300.50 C712.55 307.30 715.40 312.85 718 319.80 L719.95 324.90 720.95 329.30 C721.55 331.75 722.25 334.60 722.55 335.70 L723.10 337.70 723.05 351.55 L723.05 365.40 722.50 367.30 C722.25 368.35 721.65 370.80 721.20 372.75 C720.75 374.65 719.60 378.55 718.65 381.40 L716.90 386.60 714.50 391.40 C708.40 403.60 700 414.35 690.75 421.95 C681.90 429.20 669.65 436 660.25 438.90 C654.05 440.80 653.35 440.95 646.85 442 L640.50 443 633.25 443 C629.25 443 625.45 442.85 624.85 442.70 "/>
  <path d="M586.10 430.65 C585.05 429.90 582.40 428.10 580.15 426.65 L576.05 424 570.75 419.50 L565.50 414.95 561.65 410.35 C559.55 407.80 556.50 403.70 554.85 401.25 L551.80 396.80 549.40 391.90 C548.05 389.25 547 386.90 547 386.75 C547 386.60 546.55 385.50 546.05 384.35 C544.80 381.60 544.25 380 543.05 375.75 C541.35 369.60 541.05 368.35 540.45 363.25 L539.80 358.25 539.80 352 L539.80 345.75 540.45 340.25 L541.05 334.75 542.30 330 C543.45 325.50 544.50 322.05 545.45 319.75 C545.70 319.20 546.25 317.70 546.70 316.50 C547.90 313.30 552.60 304.50 555.05 300.80 C556.20 299.10 558.90 295.55 561.05 292.90 L564.95 288.05 568.65 284.75 C583.65 271.25 599.75 263.55 618.40 260.85 L622.25 260.30 629.25 260.10 L636.25 259.90 639.50 260.40 C641.25 260.70 644.30 261.20 646.25 261.50 C648.15 261.80 650.45 262.25 651.35 262.55 L653 263.05 653 263.80 C653 264.45 651.55 266.80 650.25 268.25 C649.95 268.55 648.85 270.10 647.75 271.65 L645.75 274.50 644.70 274.75 L643.70 275.05 639.45 274.50 L635.25 274 630.75 274 C625.90 274 618.35 274.70 615.50 275.45 C609.05 277.10 605.45 278.15 603.75 278.85 C600.85 280.05 589.70 285.70 588.90 286.40 C588.55 286.75 586.45 288.30 584.25 289.95 L580.25 292.85 575.95 297.30 C563.85 309.85 557.05 324 554.45 342 L553.85 346.25 554.15 353.50 L554.40 360.75 555.15 365 C557.05 375.95 560.85 385.40 567.40 395.25 L570.70 400.25 576.70 406.25 L582.75 412.25 588.10 415.75 L593.45 419.25 593.70 419.90 L594 420.60 593.55 421.15 C593.30 421.45 592.35 423.75 591.50 426.25 C589.10 432.75 589.10 432.75 586.10 430.65 "/>
 </g>
 <g fill="#006ed8" fill-rule="evenodd">
  <path d="M583.50 463.20 C583.50 463.05 584 461.95 584.65 460.80 C585.25 459.65 586.10 457.95 586.45 457 C586.85 456 587.65 454.10 588.30 452.70 C588.90 451.35 589.90 448.95 590.50 447.45 C591.05 445.95 591.85 444.05 592.20 443.25 C592.60 442.40 594.05 438.90 595.45 435.50 C596.90 432.05 598.35 428.55 598.70 427.75 C599.10 426.90 600.15 424.30 601.15 422 C602.10 419.65 604 415.05 605.35 411.75 C606.75 408.45 609.15 402.60 610.70 398.75 C612.30 394.90 614 390.85 614.45 389.75 C614.95 388.65 615.55 387.15 615.75 386.50 C615.95 385.80 616.70 383.90 617.45 382.25 C618.20 380.60 619.10 378.45 619.45 377.50 C619.80 376.50 620.55 374.75 621.05 373.55 L622.05 371.35 621.75 371.05 L621.40 370.75 600.70 370.85 L580 370.90 580 370.30 C580 370 581.15 368.25 582.65 366.40 C584.10 364.60 587.90 359.65 591.10 355.40 C594.35 351.20 598.70 345.45 600.85 342.70 C603 339.90 608.75 332.35 613.70 325.95 C618.65 319.50 624.40 312.05 626.45 309.45 C628.55 306.80 630.80 303.90 631.50 302.95 C632.15 302.05 633.20 300.70 633.75 300 C634.35 299.30 636.65 296.25 638.95 293.25 C641.30 290.20 644.20 286.40 645.50 284.75 C650.95 277.60 653 274.95 658 268.45 C660.85 264.70 663.70 260.95 664.35 260.15 C664.95 259.35 667.85 255.55 670.85 251.65 C673.85 247.80 677 243.45 677.95 242.05 C679.45 239.70 680.50 238.80 680.50 239.90 C680.50 240.15 679.55 242.35 678.45 244.75 C677.30 247.20 674.85 253 672.95 257.70 C669.60 266 665.40 276.20 664.50 278.25 C664.25 278.80 662.80 282.50 661.20 286.50 C659.65 290.45 657.95 294.65 657.45 295.75 C656.95 296.85 654.75 302.35 652.50 308 C650.20 313.60 648 319.15 647.50 320.25 C645.75 324.05 643 331.15 643 331.80 L643 332.45 663.45 332.35 L683.95 332.25 683.95 332.90 C683.95 333.40 681.60 336.85 680.45 338 C680.35 338.10 678.80 340.10 677.10 342.35 C675.40 344.60 672.55 348.35 670.85 350.60 C669.15 352.85 667.60 354.85 667.50 355 C667.20 355.25 666.10 356.70 660.35 364.25 C658.25 367 655.15 371.05 653.40 373.30 C648.90 379.10 641.30 389.05 637.75 393.70 C636.10 395.90 634.35 398.15 633.90 398.70 C632.20 400.75 612.55 426.15 605.05 435.95 C602.25 439.70 597.60 445.75 594.80 449.40 C592 453.05 589.05 457.05 588.20 458.25 C584.95 462.85 584.45 463.50 584 463.50 C583.70 463.50 583.50 463.35 583.50 463.20 M635.40 384.40 L635.75 384.25 L636 384 L635.65 384.25C635.45 384.35 635.10 384.50 634.90 384.50 L634.50 384.50 634.50 381.65 L634.50 378.80 635.75 377.15 L637.05 375.45 639 374.20 L640.90 373 641.20 372 L641.55 371 642.25 371 C642.65 371 642.95 371.15 642.95 371.35 C642.95 371.55 642.45 372.65 641.85 373.75 L640.70 375.75 639.40 376.35 C638.70 376.70 637.80 377.30 637.45 377.75 L636.80 378.55 636.40 381.25 L636 384L636 384 L636.25 384C636.35 384 636.50 385.10 636.50 386.45 L636.50 388.90 635.25 390.40 L634 391.85 634 392.85 L634 393.85 632.90 395.20 L631.85 396.55 630.95 396.30 L630 396.10 628.25 396.70 L626.50 397.30 624.75 400.75 C623.75 402.60 622.75 404.40 622.50 404.65 L622 405.20 622 404.45 C622 404.05 622.45 403.15 623 402.50 L623.95 401.25 623.95 400.30 C623.95 399.80 624.45 398.25 625.10 396.85 L626.20 394.30 625.60 394.10 C625.25 394 625 393.70 625 393.45 L625 393 625.95 393 L626.90 393 627.25 392.40 L627.60 391.85 627 391.50 L626.40 391.10 627.20 390.30 C627.70 389.85 628.55 389.35 629.20 389.20 L630.40 388.90 631.55 389.65 L632.75 390.45 633.50 389.90 L634.25 389.40 633.60 389.15 C633.25 389 633 388.70 633 388.45 L633 388 634 388 L635 388 635 386.55 C635 385.80 635.10 385 635.25 384.80 L635.50 384.50M618 339 L618.20 339.40C618.35 339.65 618.45 340.40 618.40 341.05 C618.35 341.70 618.45 343.45 618.65 345 L619 347.75 617.85 348.80 L616.75 349.85 614.25 350.50 L611.75 351.15 609.10 353.65 L606.50 356.10 606.50 355.55 C606.50 355.25 607.30 354.05 608.35 352.90 L610.25 350.80 612.85 349.65 C614.30 349 615.85 348.50 616.25 348.50 L617 348.50 617.05 345.60 C617.10 344 617.15 342.40 617.10 342 C617.05 341.55 616.90 340.60 616.70 339.85 L616.35 338.50 616.65 338.50 L617 338.50L617 338.50 L617 338.15C617 337.95 617.25 337 617.60 336 C617.90 335.05 618.50 333.80 618.95 333.30 L619.70 332.40 618.95 331.95 L618.25 331.50 619.15 331.50 L620.05 331.50 619.70 330.90 L619.30 330.30 620.40 330.60 C621 330.75 621.50 330.80 621.50 330.70 L621.50 330.50L621.50 330.50 L621.50 330.30C621.50 330.20 621.35 330 621.15 329.80 L620.85 329.50 621.45 328.75 L622.05 328.05 624.25 327.30 L626.45 326.55 628.20 326.75 L630 327L630.25 326.75 L630.50 326.50 L630.75 325.35C630.95 324.75 631.35 323.20 631.70 321.90 C632.10 320.65 632.85 318.75 633.35 317.65 C633.90 316.60 634.85 315.30 635.40 314.75 C636 314.25 636.50 313.60 636.50 313.30 C636.50 313.05 637.35 311.65 638.40 310.25 C639.50 308.85 640.85 306.80 641.40 305.60 C642 304.45 642.80 302.45 643.25 301.10 C643.70 299.80 644.20 298.30 644.45 297.75 C644.70 297.20 645 296.30 645.20 295.80 C645.35 295.25 645.60 294.95 645.75 295.10 C645.90 295.20 645.70 296.75 645.30 298.50 L644.65 301.75 642.80 305.40 C641.75 307.45 639.25 311.70 637.20 314.85 L633.50 320.65 633.45 321.70 C633.45 322.25 633.25 323.55 632.95 324.60 L632.45 326.50 631.95 326.50 L631.50 326.50L631.50 326.50 L631.55 326.85C631.60 327.05 631.60 327.55 631.50 328 C631.45 328.40 631.40 329.20 631.40 329.75 C631.40 330.30 631.50 331.75 631.60 333 C631.75 334.20 632.05 335.70 632.25 336.25 C632.50 336.80 633.05 337.50 633.55 337.90 L634.50 338.55 634.50 340.15 L634.50 341.75 635.25 343.85 L636 346 635.65 347.35 C635.50 348.10 634.90 349.45 634.35 350.35 L633.40 352 634.20 352 L635 352 635 352.35 C635 352.55 635.75 353.25 636.65 353.85 C637.55 354.45 638.55 355 638.85 355 L639.35 355 639.65 353.85 C639.80 353.20 640.40 352.20 641 351.60 L642 350.50 643.30 350.50 L644.55 350.50 646.20 349.25 L647.80 348 648.90 348 L649.95 348 651.85 349.05 C652.85 349.65 654.35 350.45 655.10 350.85 C655.85 351.25 656.50 351.65 656.50 351.80 L656.50 352.10 655 351.80 L653.50 351.50 652.10 351.80 L650.70 352.05 649.75 355.30 L648.85 358.55 648.15 358.80 L647.50 359.10 647.45 360.40 L647.45 361.75 646.75 363 C646.35 363.65 645.55 365.25 644.95 366.50 C644.35 367.70 643.75 369.05 643.50 369.45 C643.30 369.85 642.85 370.25 642.50 370.40 L641.80 370.60 642.20 369.65 C642.40 369.15 642.80 367.95 643.10 367 C643.35 366 643.70 364.15 643.85 362.90 L644.05 360.55 642.40 360.40 L640.75 360.25 639.75 358.10 L638.75 356 638.05 356 L637.35 356 635.30 354.30 L633.25 352.65 632 353.30 L630.75 353.95 627.90 353.95 L625.05 354 624.75 353.50 L624.40 353 626.80 352.95 C628.15 352.95 630 352.75 631 352.50 L632.75 352 633.90 349.40 L635.10 346.75 634.50 345.25 C634.15 344.40 633.70 342.75 633.45 341.60 C633.20 340.40 632.75 338.95 632.40 338.35 C632.10 337.75 631.45 336.95 631 336.60 L630.25 335.95 628.90 336.20 L627.55 336.45 624.65 335.95 L621.75 335.50 621.15 334.75 C620.85 334.30 620.50 334 620.30 334 C620.15 334 619.65 334.65 619.25 335.45 C618.80 336.25 618.50 337.40 618.50 337.95 C618.50 338.50 618.35 339 618.25 339 L618 339"/>
  <path d="M470 445.50 L470 445.25C470 445.10 470 444.85 470 444.75 C470 444.60 410.80 444.50 338.50 444.50 L207 444.50L207 444.50 L165.90 444.50L124.80 444.50 124.45 445.05 L124.05 445.65 109.15 445.25 L94.25 444.90 93.75 444.45 L93.25 443.95 93.20 437.50 L93.15 431 93.55 430.35 L93.95 429.75 288.10 429.60 L482.25 429.45 489.50 429.85 L496.75 430.25 496.75 437.15 L496.75 444.05 496 444.45 L495.25 444.85 487.80 445.20 L480.35 445.55 479.90 444.90 L479.50 444.25 479.50 444.85 L479.50 445.50 478.75 445.50 L478 445.50 477.95 444.85 L477.95 444.25 477.50 445 L477 445.75 477 445.10 L477 444.50 474.75 444.50 L472.50 444.50 472.45 445.10 L472.40 445.75 472.15 445.10 L471.90 444.50 471.20 444.50 L470.50 444.50 470.50 445 C470.50 445.25 470.35 445.50 470.25 445.50 L470 445.50"/>
  <path d="M94.75 413.10 C94.65 412.85 94.55 410.35 94.60 407.45 C94.60 404.60 94.70 381.40 94.80 356 L95 309.75 94.60 308.50 L94.25 307.25 94.50 297.75 L94.75 288.25 109 288.25 L123.25 288.25 123.25 312.60 L123.30 337 123.80 337.50 L124.30 338 149.65 337.85 L175.05 337.75 175 313.45 L174.95 289.15 175.65 288.55 L176.35 287.95 190.05 288.10 L203.75 288.25 203.75 350.75 L203.75 413.25 189.50 413.25 L175.25 413.25 175.10 388.30 C175.05 374.55 174.90 363.25 174.80 363.15 C174.70 363.05 163.30 362.95 149.45 362.95 L124.30 362.95 123.80 363.45 L123.30 363.95 123.15 388.45 L123 413 109 413.25 L95 413.50 94.75 413.10 "/>
  <path d="M227.50 366 L227.75 366C227.85 366 228 355.50 228 342.75 C228 329.95 227.85 319.50 227.75 319.50 C227.60 319.50 227.50 319.35 227.50 319.25 L227.50 319L227.50 319 L227.85 303.60L228.25 288.25 245.90 288.25 L263.55 288.25 265.80 293.75 C267 296.75 268.30 299.90 268.70 300.75 C269.10 301.55 269.90 303.45 270.50 305 C271.05 306.50 271.85 308.40 272.20 309.25 C272.55 310.05 273.35 311.95 274 313.50 C274.60 315 275.55 317.20 276.05 318.35 C276.55 319.50 277 320.55 277 320.70 C277 320.80 278.35 324.15 280 328.05 C281.65 332 283.30 335.90 283.70 336.75 C284.05 337.55 285.40 340.80 286.70 344 C287.95 347.15 289.35 350.40 289.70 351.25 C290.10 352.05 290.90 353.95 291.45 355.45 C292.05 356.95 293.05 359.35 293.70 360.70 C294.30 362.10 295.30 364.60 295.95 366.25 C296.60 367.90 297.40 369.55 297.80 369.95 L298.45 370.65 298.75 369.70 C298.95 369.15 299.40 368 299.80 367.10 C300.15 366.20 300.80 364.75 301.15 363.85 C301.55 362.95 302.35 361.15 302.90 359.85 C303.50 358.55 304 357.40 304 357.30 C304 357.15 304.75 355.40 305.70 353.40 C306.65 351.40 307.90 348.50 308.50 347 C309.05 345.50 310.10 343.05 310.75 341.60 C311.45 340.15 312 338.85 312 338.70 C312 338.60 312.50 337.30 313.20 335.85 C313.85 334.40 314.90 332 315.50 330.45 C316.05 328.95 317.10 326.55 317.75 325.10 C318.45 323.65 318.95 322.35 319 322.20 C319 322.10 319.65 320.55 320.50 318.75 C321.30 316.90 322 315.35 322 315.25 C321.95 315.10 322.50 313.80 323.20 312.35 C323.85 310.90 325.75 306.45 327.45 302.50 C329.15 298.50 330.85 294.45 331.30 293.50 C331.70 292.50 332.40 290.95 332.90 290 L333.75 288.25 350.20 288.10 L366.65 287.95 367.05 288.60 L367.45 289.25 367.45 350.80 L367.50 412.35 366.80 412.90 L366.10 413.50 354.15 413.35 L342.25 413.25 342.10 404.25 L341.95 395.25 342.45 394.25 L343 393.25 342.75 369.50 C342.60 356.40 342.35 341.85 342.10 337.10 L341.75 328.45 340 332.35 C339.05 334.50 337.65 337.60 336.95 339.25 C336.20 340.90 334.20 345.50 332.45 349.50 C330.75 353.45 328.85 357.90 328.15 359.35 C327.50 360.80 327 362.10 327 362.25 C327 362.35 326.45 363.65 325.80 365.10 C325.10 366.55 324.15 368.75 323.60 370 C323.05 371.20 320.95 375.95 319 380.50 C317 385 315 389.65 314.50 390.75 C314 391.85 312.65 395 311.45 397.75 C310.25 400.50 309.10 403 308.80 403.35 L308.35 404 297.80 403.85 L287.25 403.75 286.20 401.75 C285.65 400.65 283.85 396.70 282.25 393 C280.70 389.25 279.05 385.50 278.65 384.60 C278.30 383.70 277.65 382.25 277.25 381.35 C276.85 380.45 275.75 378 274.75 375.85 C273.80 373.70 273 371.85 273 371.75 C273 371.60 272.45 370.30 271.80 368.85 C271.10 367.40 270.10 365.10 269.45 363.75 C268.85 362.35 267.95 360.35 267.50 359.25 C267 358.15 265.40 354.55 264 351.25 C262.55 347.95 260.60 343.55 259.65 341.55 C258.75 339.55 258 337.80 258 337.70 C258 337.60 257.40 336.25 256.70 334.75 C256.05 333.25 255.20 331.40 254.85 330.65 L254.25 329.25 254.10 370.70 L253.95 412.15 253.40 412.80 L252.85 413.50 240.65 413.50 L228.45 413.50 228.20 412.85 C228.05 412.45 227.85 401.80 227.70 389.10 L227.50 366"/>
  <path d="M391.50 412.90 L391 412.30 391 351.10 L391 289.90 391.50 288.95 L392 288 422.60 288 L453.15 288 456.20 288.50 C457.85 288.80 461.05 289.50 463.25 290.10 L467.25 291.15 471.25 293.15 L475.25 295.15 479.50 299.45 L483.75 303.75 485.60 307.50 L487.45 311.25 488.20 314.50 L488.95 317.75 488.95 321.75 L489 325.75 488.20 328.70 C486.45 335.40 482.25 341.50 476.35 345.80 C475.05 346.80 474 347.75 474 347.95 C474 348.15 475.45 349.20 477.30 350.30 L480.60 352.20 483.20 354.70 L485.80 357.25 487.85 360.30 L489.95 363.40 491.30 367.30 L492.65 371.25 492.85 377.30 L493.05 383.35 492 387.25 L490.90 391.20 489.20 394.50 L487.45 397.85 484.95 400.60 L482.45 403.40 478.95 405.75 L475.40 408.10 472.85 409.05 C470.25 410.05 466.80 411.05 461.85 412.25 L459 413 425.50 413.25 L392 413.50 391.50 412.90 M419.25 389.60 C419 389.10 418.85 381.10 418.95 369.60 L419 361 436.45 361 L453.95 361 455.35 361.55 C458.10 362.65 459.25 363.25 461.15 364.45 L463.05 365.65 464.35 367.85 L465.65 370.10 465.85 373.70 L466.10 377.30 465.25 380.15 L464.45 383 462.70 384.95 L460.95 386.85 459.35 387.45 C458.45 387.80 457.35 388.25 456.85 388.50 L456 389 437.75 389.50 L419.50 390 419.25 389.60 M419 332.75 L419 327.55 418.50 327.25 L418 326.90 418 324.75 L418 322.55 418.50 322.25 L419 321.90 419 316.15 L419 310.40 434.85 310.60 L450.75 310.75 453.50 311.95 L456.25 313.10 458.55 315.50 L460.85 317.90 461.15 319.50 C461.35 320.40 461.45 322.60 461.45 324.40 L461.45 327.75 460.55 329.75 L459.60 331.80 458.30 333.10 C457.55 333.85 456 335 454.85 335.65 L452.75 336.90 449.85 337.45 L447 338 433 338 L419 338 419 332.75 "/>
 </g>
 <g fill="#019efe" fill-rule="evenodd">
  <path d="M621.50 330.50 L621.50 330.30C621.50 330.20 621.35 330 621.15 329.80 L620.85 329.50 621.45 328.75 L622.05 328.05 624.25 327.30 L626.45 326.55 628.20 326.75 L630 327L630 327 L630 327.65C630 328 629.55 328.75 629.05 329.30 C628.50 329.85 627.40 330.60 626.50 330.95 L624.90 331.60 623.80 331.05 C623.20 330.70 622.45 330.45 622.10 330.45 L621.50 330.50"/>
 </g>
 <g fill="#ffffff" fill-rule="evenodd">
  <path d="M207 444.50 L338.50 444.50C410.80 444.50 470 444.60 470 444.75 C470 444.85 470 445.10 470 445.25 L470 445.50L470 445.50 L426.25 445.50C402.15 445.50 343 445.50 294.75 445.50 L207 445.50 207 445 L207 444.50"/>
  <path d="M634.50 381.65 L634.50 378.80 635.75 377.15 L637.05 375.45 639 374.20 L640.90 373 641.20 372 L641.55 371 642.25 371 C643.20 371 643.15 371.35 641.85 373.70 L640.70 375.70 639.45 376.30 C638.80 376.65 637.85 377.40 637.35 378 L636.50 379.10 636.50 380.80 L636.50 382.55 636 383.50 C635.70 384.05 635.25 384.50 635 384.50 L634.50 384.50 634.50 381.65 "/>
  <path d="M227.50 319 L227.50 319.25C227.50 319.35 227.60 319.50 227.75 319.50 C227.85 319.50 228 329.95 228 342.75 C228 355.50 227.85 366 227.75 366 L227.50 366L227.50 366 L227.35 366C227.30 366 227.25 355.40 227.25 342.50 C227.25 329.55 227.30 319 227.35 319 L227.50 319"/>
  <path d="M617.25 338.75 L617.75 338.75 L618 339 L618.20 339.40C618.35 339.65 618.45 340.40 618.40 341.05 C618.35 341.70 618.45 343.45 618.65 345 L619 347.75 617.85 348.80 L616.75 349.85 614.25 350.50 L611.75 351.15 609.10 353.65 L606.50 356.10 606.50 355.55 C606.50 355.25 607.30 354.05 608.35 352.90 L610.25 350.80 612.85 349.65 C614.30 349 615.85 348.50 616.25 348.50 L617 348.50 617.05 345.60 C617.10 344 617.15 342.40 617.10 342 C617.05 341.55 616.90 340.60 616.70 339.85 L616.35 338.50 616.65 338.50 L617 338.50"/>
  <path d="M631 326.50 L630.50 326.50 L630.75 325.35C630.95 324.75 631.35 323.20 631.70 321.90 C632.10 320.65 632.85 318.75 633.35 317.65 C633.90 316.60 634.85 315.30 635.40 314.75 C636 314.25 636.50 313.60 636.50 313.30 C636.50 313.05 637.35 311.65 638.40 310.25 C639.50 308.85 640.85 306.80 641.40 305.60 C642 304.45 642.80 302.45 643.25 301.10 C643.70 299.80 644.20 298.30 644.45 297.75 C644.70 297.20 645 296.30 645.20 295.80 C645.35 295.25 645.60 294.95 645.75 295.10 C645.90 295.20 645.70 296.75 645.30 298.50 L644.65 301.75 642.80 305.40 C641.75 307.45 639.25 311.70 637.20 314.85 L633.50 320.65 633.45 321.70 C633.45 322.25 633.25 323.55 632.95 324.60 L632.45 326.50 631.95 326.50 L631.50 326.50"/>
 </g>
</svg>