<?xml version="1.0" encoding="utf-8" ?>
<svg baseProfile="tiny" height="1024px" version="1.2" width="1024px" xmlns="http://www.w3.org/2000/svg" xmlns:ev="http://www.w3.org/2001/xml-events" xmlns:xlink="http://www.w3.org/1999/xlink"><defs /><rect fill="white" height="1024px" width="1024px" x="0" y="0" /><path d="M 631,592 L 630,593 L 630,694 L 631,695 L 650,695 L 652,693 L 652,654 L 653,653 L 693,653 L 694,654 L 694,694 L 695,694 L 696,695 L 715,695 L 716,694 L 716,593 L 715,592 L 696,592 L 695,593 L 694,593 L 694,632 L 693,633 L 653,633 L 652,632 L 652,594 L 650,592 Z" fill="none" stroke="black" stroke-width="2" /><path d="M 426,592 L 425,593 L 425,694 L 426,695 L 495,695 L 497,693 L 497,679 L 496,678 L 496,677 L 495,676 L 448,676 L 447,675 L 447,653 L 448,652 L 492,652 L 492,635 L 491,635 L 490,634 L 448,634 L 447,633 L 447,612 L 448,611 L 496,611 L 496,610 L 497,609 L 497,594 L 495,592 Z" fill="none" stroke="black" stroke-width="2" /><path d="M 321,592 L 319,594 L 319,610 L 320,611 L 321,611 L 322,612 L 350,612 L 351,613 L 351,693 L 353,695 L 372,695 L 373,694 L 374,694 L 374,613 L 375,612 L 405,612 L 407,610 L 407,594 L 405,592 Z" fill="none" stroke="black" stroke-width="2" /><path d="M 566,590 L 565,591 L 557,591 L 556,592 L 552,592 L 551,593 L 548,593 L 547,594 L 546,594 L 545,595 L 543,595 L 542,596 L 541,596 L 540,597 L 539,597 L 538,598 L 537,598 L 535,600 L 534,600 L 523,611 L 523,612 L 521,614 L 521,615 L 520,616 L 520,617 L 519,618 L 519,619 L 518,620 L 518,622 L 517,623 L 517,624 L 516,625 L 516,628 L 515,629 L 515,632 L 514,633 L 514,640 L 513,641 L 513,646 L 514,647 L 514,655 L 515,656 L 515,659 L 516,660 L 516,662 L 517,663 L 517,665 L 518,666 L 518,668 L 519,669 L 519,670 L 520,671 L 520,672 L 521,673 L 521,674 L 524,677 L 524,678 L 532,686 L 533,686 L 535,688 L 536,688 L 538,690 L 539,690 L 540,691 L 542,691 L 543,692 L 544,692 L 545,693 L 547,693 L 548,694 L 550,694 L 551,695 L 554,695 L 555,696 L 560,696 L 561,697 L 569,697 L 570,696 L 576,696 L 577,695 L 580,695 L 581,694 L 583,694 L 584,693 L 585,693 L 586,692 L 588,692 L 589,691 L 590,691 L 591,690 L 592,690 L 593,689 L 594,689 L 596,687 L 597,687 L 607,677 L 607,676 L 609,674 L 609,673 L 610,672 L 610,670 L 611,669 L 611,668 L 612,667 L 612,664 L 588,664 L 586,666 L 586,667 L 580,673 L 579,673 L 577,675 L 575,675 L 574,676 L 569,676 L 568,677 L 564,677 L 563,676 L 557,676 L 556,675 L 555,675 L 554,674 L 553,674 L 552,673 L 551,673 L 549,671 L 548,671 L 543,666 L 543,665 L 541,663 L 541,662 L 540,661 L 540,660 L 539,659 L 539,658 L 538,657 L 538,654 L 537,653 L 537,635 L 538,634 L 538,631 L 539,630 L 539,628 L 540,627 L 540,626 L 541,625 L 541,624 L 543,622 L 543,621 L 549,615 L 550,615 L 552,613 L 553,613 L 554,612 L 555,612 L 556,611 L 560,611 L 561,610 L 572,610 L 573,611 L 575,611 L 576,612 L 578,612 L 587,621 L 587,623 L 612,623 L 612,621 L 611,620 L 611,619 L 610,618 L 610,616 L 609,615 L 609,614 L 608,613 L 608,612 L 607,611 L 607,610 L 605,608 L 605,607 L 598,600 L 597,600 L 595,598 L 594,598 L 592,596 L 590,596 L 589,595 L 588,595 L 587,594 L 585,594 L 584,593 L 582,593 L 581,592 L 578,592 L 577,591 L 568,591 L 567,590 Z" fill="none" stroke="black" stroke-width="2" /><path d="M 119,550 L 119,568 L 120,568 L 121,569 L 633,569 L 634,568 L 635,568 L 635,550 Z" fill="none" stroke="black" stroke-width="2" /><path d="M 440,525 L 440,526 Z" fill="none" stroke="black" stroke-width="2" /><path d="M 364,503 L 364,504 Z" fill="none" stroke="black" stroke-width="2" /><path d="M 502,368 L 501,369 L 501,528 L 502,528 L 503,529 L 579,529 L 580,528 L 588,528 L 589,527 L 593,527 L 594,526 L 597,526 L 598,525 L 600,525 L 601,524 L 603,524 L 604,523 L 606,523 L 607,522 L 608,522 L 609,521 L 610,521 L 611,520 L 612,520 L 614,518 L 615,518 L 623,510 L 623,509 L 625,507 L 625,505 L 627,503 L 627,501 L 628,500 L 628,498 L 629,497 L 629,495 L 630,494 L 630,489 L 631,488 L 631,480 L 630,479 L 630,474 L 629,473 L 629,470 L 628,469 L 628,468 L 627,467 L 627,466 L 626,465 L 626,463 L 624,461 L 624,460 L 621,457 L 621,456 L 616,451 L 615,451 L 613,449 L 612,449 L 610,447 L 609,447 L 608,446 L 607,446 L 606,445 L 608,443 L 609,443 L 619,433 L 619,432 L 621,430 L 621,428 L 622,427 L 622,426 L 623,425 L 623,424 L 624,423 L 624,420 L 625,419 L 625,403 L 624,402 L 624,399 L 623,398 L 623,397 L 622,396 L 622,395 L 621,394 L 621,392 L 620,391 L 620,390 L 617,387 L 617,386 L 610,379 L 609,379 L 606,376 L 605,376 L 604,375 L 602,375 L 601,374 L 600,374 L 599,373 L 598,373 L 597,372 L 595,372 L 594,371 L 592,371 L 591,370 L 588,370 L 587,369 L 580,369 L 579,368 Z" fill="none" stroke="black" stroke-width="2" /><path d="M 293,368 L 291,370 L 291,527 L 292,528 L 293,528 L 294,529 L 322,529 L 323,528 L 324,528 L 324,421 L 325,420 L 326,421 L 326,424 L 327,425 L 327,426 L 328,427 L 328,428 L 329,429 L 329,430 L 330,431 L 330,433 L 331,434 L 331,435 L 332,436 L 332,437 L 333,438 L 333,439 L 334,440 L 334,442 L 335,443 L 335,444 L 336,445 L 336,447 L 338,449 L 338,451 L 339,452 L 339,453 L 340,454 L 340,455 L 341,456 L 341,458 L 342,459 L 342,460 L 343,461 L 343,462 L 344,463 L 344,465 L 345,466 L 345,467 L 346,468 L 346,469 L 347,470 L 347,471 L 348,472 L 348,474 L 349,475 L 349,476 L 350,477 L 350,478 L 351,479 L 351,480 L 352,481 L 352,483 L 353,484 L 353,485 L 354,486 L 354,487 L 355,488 L 355,489 L 356,490 L 356,492 L 357,493 L 357,494 L 358,495 L 358,496 L 359,497 L 359,499 L 360,500 L 360,501 L 361,502 L 361,503 L 362,504 L 362,506 L 363,507 L 363,509 L 365,511 L 365,512 L 366,513 L 366,515 L 367,516 L 395,516 L 395,515 L 396,514 L 396,513 L 397,512 L 397,510 L 399,508 L 399,506 L 400,505 L 400,504 L 401,503 L 401,501 L 402,500 L 402,499 L 403,498 L 403,497 L 404,496 L 404,494 L 405,493 L 405,492 L 406,491 L 406,490 L 407,489 L 407,488 L 408,487 L 408,485 L 409,484 L 409,483 L 410,482 L 410,481 L 411,480 L 411,478 L 412,477 L 412,476 L 413,475 L 413,474 L 414,473 L 414,472 L 415,471 L 415,469 L 416,468 L 416,467 L 417,466 L 417,465 L 418,464 L 418,462 L 419,461 L 419,460 L 420,459 L 420,458 L 421,457 L 421,455 L 422,454 L 422,453 L 423,452 L 423,451 L 424,450 L 424,449 L 425,448 L 425,446 L 426,445 L 426,444 L 427,443 L 427,442 L 428,441 L 428,439 L 429,438 L 429,437 L 430,436 L 430,435 L 431,434 L 431,433 L 432,432 L 432,430 L 433,429 L 433,428 L 434,427 L 434,426 L 435,425 L 435,424 L 436,423 L 436,421 L 437,420 L 438,421 L 438,528 L 440,528 L 441,529 L 468,529 L 470,527 L 470,370 L 468,368 L 428,368 L 427,369 L 426,369 L 426,370 L 425,371 L 425,373 L 424,374 L 424,375 L 423,376 L 423,378 L 422,379 L 422,380 L 421,381 L 421,382 L 420,383 L 420,385 L 419,386 L 419,387 L 418,388 L 418,389 L 417,390 L 417,392 L 416,393 L 416,394 L 415,395 L 415,396 L 414,397 L 414,399 L 413,400 L 413,401 L 412,402 L 412,403 L 411,404 L 411,406 L 410,407 L 410,408 L 409,409 L 409,410 L 408,411 L 408,413 L 407,414 L 407,415 L 406,416 L 406,417 L 405,418 L 405,420 L 404,421 L 404,422 L 403,423 L 403,424 L 402,425 L 402,427 L 401,428 L 401,429 L 400,430 L 400,431 L 399,432 L 399,434 L 398,435 L 398,436 L 397,437 L 397,439 L 396,440 L 396,441 L 395,442 L 395,443 L 394,444 L 394,446 L 393,447 L 393,448 L 392,449 L 392,450 L 391,451 L 391,453 L 390,454 L 390,455 L 389,456 L 389,457 L 388,458 L 388,459 L 387,460 L 387,462 L 386,463 L 386,464 L 385,465 L 385,466 L 384,467 L 384,469 L 383,470 L 383,471 L 382,472 L 382,474 L 382,472 L 383,471 L 383,470 L 384,469 L 384,467 L 385,466 L 385,465 L 386,464 L 386,463 L 387,462 L 387,460 L 388,459 L 388,458 L 389,457 L 389,456 L 390,455 L 390,454 L 391,453 L 391,451 L 392,450 L 392,449 L 393,448 L 393,447 L 394,446 L 394,444 L 395,443 L 395,442 L 396,441 L 396,440 L 397,439 L 397,437 L 398,436 L 398,435 L 399,434 L 399,432 L 400,431 L 400,430 L 401,429 L 401,428 L 402,427 L 402,425 L 403,424 L 403,423 L 404,422 L 404,421 L 405,420 L 405,418 L 406,417 L 406,416 L 407,415 L 407,414 L 408,413 L 408,411 L 409,410 L 409,409 L 410,408 L 410,407 L 411,406 L 411,404 L 412,403 L 412,402 L 413,401 L 413,400 L 414,399 L 414,397 L 415,396 L 415,395 L 416,394 L 416,393 L 417,392 L 417,390 L 418,389 L 418,388 L 419,387 L 419,386 L 420,385 L 420,383 L 421,382 L 421,381 L 422,380 L 422,379 L 423,378 L 423,376 L 424,375 L 424,374 L 425,373 L 425,371 L 428,368 L 468,368 L 470,370 L 470,527 L 468,529 L 441,529 L 440,528 L 439,528 L 438,527 L 438,421 L 437,420 L 437,419 L 437,420 L 436,421 L 436,423 L 435,424 L 435,425 L 434,426 L 434,427 L 433,428 L 433,429 L 432,430 L 432,432 L 431,433 L 431,434 L 430,435 L 430,436 L 429,437 L 429,438 L 428,439 L 428,441 L 427,442 L 427,443 L 426,444 L 426,445 L 425,446 L 425,448 L 424,449 L 424,450 L 423,451 L 423,452 L 422,453 L 422,454 L 421,455 L 421,457 L 420,458 L 420,459 L 419,460 L 419,461 L 418,462 L 418,464 L 417,465 L 417,466 L 416,467 L 416,468 L 415,469 L 415,471 L 414,472 L 414,473 L 413,474 L 413,475 L 412,476 L 412,477 L 411,478 L 411,480 L 410,481 L 410,482 L 409,483 L 409,484 L 408,485 L 408,486 L 407,487 L 407,489 L 406,490 L 406,491 L 405,492 L 405,493 L 404,494 L 404,496 L 403,497 L 403,498 L 402,499 L 402,500 L 401,501 L 401,503 L 400,504 L 400,505 L 399,506 L 399,507 L 398,508 L 398,509 L 397,510 L 397,512 L 396,513 L 396,514 L 394,516 L 367,516 L 366,515 L 366,513 L 365,512 L 365,511 L 364,510 L 364,509 L 363,508 L 363,507 L 362,506 L 362,504 L 361,503 L 361,502 L 360,501 L 360,500 L 359,499 L 359,497 L 358,496 L 358,495 L 357,494 L 357,493 L 356,492 L 356,490 L 355,489 L 355,488 L 354,487 L 354,486 L 353,485 L 353,484 L 352,483 L 352,481 L 351,480 L 351,479 L 350,478 L 350,477 L 349,476 L 349,475 L 348,474 L 348,472 L 347,471 L 347,470 L 346,469 L 346,468 L 345,467 L 345,466 L 344,465 L 344,463 L 343,462 L 343,461 L 342,460 L 342,459 L 341,458 L 341,456 L 340,455 L 340,454 L 339,453 L 339,452 L 338,451 L 338,449 L 337,448 L 337,447 L 336,446 L 336,445 L 335,444 L 335,443 L 334,442 L 334,440 L 333,439 L 333,438 L 332,437 L 332,436 L 331,435 L 331,434 L 330,433 L 330,431 L 329,430 L 329,429 L 328,428 L 328,427 L 327,426 L 327,425 L 326,424 L 326,421 L 325,420 L 325,419 L 325,420 L 324,421 L 324,527 L 322,529 L 294,529 L 293,528 L 292,528 L 291,527 L 291,370 L 293,368 L 335,368 L 338,371 L 338,372 L 339,373 L 339,375 L 340,376 L 340,377 L 341,378 L 341,380 L 342,381 L 342,382 L 343,383 L 343,384 L 344,385 L 344,387 L 345,388 L 345,389 L 346,390 L 346,392 L 347,393 L 347,394 L 348,395 L 348,396 L 349,397 L 349,399 L 350,400 L 350,401 L 351,402 L 351,404 L 352,405 L 352,406 L 353,407 L 353,408 L 354,409 L 354,411 L 355,412 L 355,413 L 356,414 L 356,416 L 357,417 L 357,418 L 358,419 L 358,421 L 359,422 L 359,423 L 360,424 L 360,425 L 361,426 L 361,428 L 362,429 L 362,430 L 363,431 L 363,432 L 364,433 L 364,435 L 365,436 L 365,437 L 366,438 L 366,440 L 367,441 L 367,442 L 368,443 L 368,444 L 369,445 L 369,447 L 370,448 L 370,449 L 371,450 L 371,452 L 372,453 L 372,454 L 373,455 L 373,456 L 374,457 L 374,459 L 375,460 L 375,461 L 376,462 L 376,464 L 377,465 L 377,466 L 378,467 L 378,468 L 379,469 L 379,471 L 380,472 L 380,474 L 380,472 L 379,471 L 379,469 L 378,468 L 378,467 L 377,466 L 377,465 L 376,464 L 376,462 L 375,461 L 375,460 L 374,459 L 374,457 L 373,456 L 373,455 L 372,454 L 372,453 L 371,452 L 371,450 L 370,449 L 370,448 L 369,447 L 369,445 L 368,444 L 368,443 L 367,442 L 367,441 L 366,440 L 366,438 L 365,437 L 365,436 L 364,435 L 364,433 L 363,432 L 363,431 L 362,430 L 362,429 L 361,428 L 361,426 L 360,425 L 360,424 L 359,423 L 359,422 L 358,421 L 358,419 L 357,418 L 357,417 L 356,416 L 356,414 L 355,413 L 355,412 L 354,411 L 354,409 L 353,408 L 353,407 L 352,406 L 352,405 L 351,404 L 351,402 L 350,401 L 350,400 L 349,399 L 349,397 L 348,396 L 348,395 L 347,394 L 347,393 L 346,392 L 346,390 L 345,389 L 345,388 L 344,387 L 344,385 L 343,384 L 343,383 L 342,382 L 342,381 L 341,380 L 341,378 L 340,377 L 340,376 L 339,375 L 339,373 L 338,372 L 338,371 L 337,370 L 337,369 L 336,369 L 335,368 Z" fill="none" stroke="black" stroke-width="2" /><path d="M 122,368 L 121,369 L 121,370 L 120,371 L 120,527 L 122,529 L 155,529 L 156,528 L 157,528 L 158,527 L 158,465 L 159,464 L 223,464 L 224,465 L 224,528 L 226,528 L 227,529 L 259,529 L 261,527 L 261,370 L 259,368 L 226,368 L 225,369 L 224,369 L 224,431 L 223,432 L 159,432 L 158,431 L 158,370 L 156,368 Z" fill="none" stroke="black" stroke-width="2" /><path d="M 864,347 L 864,348 L 863,349 L 863,351 L 862,352 L 862,353 L 861,354 L 861,356 L 860,357 L 860,359 L 859,360 L 859,361 L 858,362 L 859,363 L 859,364 L 860,365 L 861,365 L 863,367 L 864,367 L 866,369 L 867,369 L 870,372 L 871,372 L 887,388 L 887,389 L 890,392 L 890,393 L 892,395 L 892,396 L 894,398 L 894,399 L 895,400 L 895,401 L 896,402 L 896,403 L 898,405 L 898,406 L 899,407 L 899,408 L 900,409 L 900,410 L 901,411 L 901,413 L 902,414 L 902,416 L 903,417 L 903,419 L 904,420 L 904,422 L 905,423 L 905,426 L 906,427 L 906,430 L 907,431 L 907,436 L 908,437 L 908,462 L 907,463 L 907,468 L 906,469 L 906,473 L 905,474 L 905,476 L 904,477 L 904,480 L 903,481 L 903,483 L 902,484 L 902,485 L 901,486 L 901,488 L 900,489 L 900,490 L 899,491 L 899,492 L 898,493 L 898,494 L 896,496 L 896,497 L 895,498 L 895,499 L 893,501 L 893,502 L 891,504 L 891,505 L 889,507 L 889,508 L 885,512 L 885,513 L 871,527 L 870,527 L 867,530 L 866,530 L 864,532 L 863,532 L 861,534 L 860,534 L 858,536 L 857,536 L 856,537 L 855,537 L 853,539 L 852,539 L 851,540 L 849,540 L 848,541 L 847,541 L 846,542 L 845,542 L 844,543 L 842,543 L 841,544 L 839,544 L 838,545 L 835,545 L 834,546 L 831,546 L 830,547 L 825,547 L 824,548 L 812,548 L 811,549 L 806,549 L 805,548 L 791,548 L 788,551 L 788,552 L 785,555 L 785,556 L 782,559 L 782,560 L 781,561 L 781,562 L 782,563 L 785,563 L 786,564 L 789,564 L 790,565 L 795,565 L 796,566 L 804,566 L 805,567 L 817,567 L 818,566 L 826,566 L 827,565 L 831,565 L 832,564 L 836,564 L 837,563 L 840,563 L 841,562 L 843,562 L 844,561 L 846,561 L 847,560 L 849,560 L 850,559 L 852,559 L 853,558 L 854,558 L 855,557 L 856,557 L 857,556 L 858,556 L 859,555 L 860,555 L 861,554 L 863,554 L 864,553 L 865,553 L 867,551 L 868,551 L 869,550 L 870,550 L 872,548 L 873,548 L 875,546 L 876,546 L 878,544 L 879,544 L 883,540 L 884,540 L 899,525 L 899,524 L 902,521 L 902,520 L 905,517 L 905,516 L 907,514 L 907,513 L 909,511 L 909,510 L 910,509 L 910,508 L 911,507 L 911,506 L 913,504 L 913,502 L 914,501 L 914,500 L 915,499 L 915,498 L 916,497 L 916,496 L 917,495 L 917,494 L 918,493 L 918,491 L 919,490 L 919,488 L 920,487 L 920,485 L 921,484 L 921,482 L 922,481 L 922,478 L 923,477 L 923,474 L 924,473 L 924,468 L 925,467 L 925,460 L 926,459 L 926,439 L 925,438 L 925,432 L 924,431 L 924,426 L 923,425 L 923,422 L 922,421 L 922,418 L 921,417 L 921,415 L 920,414 L 920,412 L 919,411 L 919,409 L 918,408 L 918,407 L 917,406 L 917,404 L 916,403 L 916,402 L 915,401 L 915,400 L 914,399 L 914,398 L 913,397 L 913,395 L 912,394 L 912,393 L 910,391 L 910,390 L 909,389 L 909,388 L 907,386 L 907,385 L 905,383 L 905,382 L 902,379 L 902,378 L 899,375 L 899,374 L 885,360 L 884,360 L 880,356 L 879,356 L 877,354 L 876,354 L 874,352 L 873,352 L 871,350 L 870,350 L 869,349 L 868,349 L 866,347 Z" fill="none" stroke="black" stroke-width="2" /><path d="M 799,332 L 798,333 L 790,333 L 789,334 L 785,334 L 784,335 L 781,335 L 780,336 L 777,336 L 776,337 L 774,337 L 773,338 L 770,338 L 769,339 L 768,339 L 767,340 L 765,340 L 764,341 L 763,341 L 762,342 L 760,342 L 759,343 L 758,343 L 757,344 L 756,344 L 755,345 L 754,345 L 753,346 L 752,346 L 751,347 L 750,347 L 749,348 L 748,348 L 746,350 L 745,350 L 743,352 L 742,352 L 740,354 L 739,354 L 737,356 L 736,356 L 731,361 L 730,361 L 719,372 L 719,373 L 715,377 L 715,378 L 712,381 L 712,382 L 710,384 L 710,385 L 708,387 L 708,388 L 707,389 L 707,390 L 706,391 L 706,392 L 704,394 L 704,395 L 703,396 L 703,397 L 702,398 L 702,400 L 701,401 L 701,402 L 700,403 L 700,404 L 699,405 L 699,407 L 698,408 L 698,409 L 697,410 L 697,412 L 696,413 L 696,415 L 695,416 L 695,419 L 694,420 L 694,423 L 693,424 L 693,427 L 692,428 L 692,433 L 691,434 L 691,444 L 690,445 L 690,455 L 691,456 L 691,465 L 692,466 L 692,471 L 693,472 L 693,476 L 694,477 L 694,479 L 695,480 L 695,483 L 696,484 L 696,486 L 697,487 L 697,489 L 698,490 L 698,491 L 699,492 L 699,494 L 700,495 L 700,496 L 701,497 L 701,498 L 702,499 L 702,500 L 703,501 L 703,502 L 704,503 L 704,504 L 705,505 L 705,506 L 706,507 L 706,508 L 707,509 L 707,510 L 709,512 L 709,513 L 711,515 L 711,516 L 714,519 L 714,520 L 718,524 L 718,525 L 731,538 L 732,538 L 736,542 L 737,542 L 739,544 L 740,544 L 742,546 L 743,546 L 745,548 L 746,548 L 748,550 L 749,550 L 750,551 L 751,551 L 752,552 L 754,552 L 754,550 L 755,549 L 755,548 L 756,547 L 756,545 L 757,544 L 757,543 L 758,542 L 758,540 L 759,539 L 759,536 L 758,535 L 757,535 L 756,534 L 755,534 L 752,531 L 751,531 L 749,529 L 748,529 L 743,524 L 742,524 L 733,515 L 733,514 L 728,509 L 728,508 L 726,506 L 726,505 L 724,503 L 724,502 L 722,500 L 722,499 L 720,497 L 720,496 L 719,495 L 719,494 L 718,493 L 718,492 L 717,491 L 717,489 L 716,488 L 716,487 L 715,486 L 715,484 L 714,483 L 714,481 L 713,480 L 713,478 L 712,477 L 712,474 L 711,473 L 711,470 L 710,469 L 710,464 L 709,463 L 709,435 L 710,434 L 710,429 L 711,428 L 711,425 L 712,424 L 712,421 L 713,420 L 713,418 L 714,417 L 714,415 L 715,414 L 715,413 L 716,412 L 716,410 L 717,409 L 717,408 L 718,407 L 718,406 L 719,405 L 719,404 L 721,402 L 721,401 L 722,400 L 722,399 L 724,397 L 724,396 L 725,395 L 725,394 L 728,391 L 728,390 L 732,386 L 732,385 L 744,373 L 745,373 L 748,370 L 749,370 L 752,367 L 753,367 L 755,365 L 756,365 L 757,364 L 758,364 L 760,362 L 761,362 L 762,361 L 763,361 L 764,360 L 765,360 L 766,359 L 767,359 L 768,358 L 769,358 L 770,357 L 772,357 L 773,356 L 774,356 L 775,355 L 777,355 L 778,354 L 781,354 L 782,353 L 785,353 L 786,352 L 790,352 L 791,351 L 799,351 L 800,350 L 814,350 L 815,351 L 822,351 L 823,352 L 824,352 L 825,351 L 826,351 L 828,349 L 828,348 L 831,345 L 831,344 L 833,342 L 833,341 L 835,339 L 835,336 L 833,336 L 832,335 L 829,335 L 828,334 L 823,334 L 822,333 L 816,333 L 815,332 Z" fill="none" stroke="black" stroke-width="2" /><path d="M 869,306 L 868,307 L 868,308 L 867,309 L 867,310 L 866,311 L 866,312 L 862,316 L 862,317 L 859,320 L 859,321 L 856,324 L 856,325 L 852,329 L 852,330 L 849,333 L 849,334 L 846,337 L 846,338 L 842,342 L 842,343 L 839,346 L 839,347 L 836,350 L 836,351 L 832,355 L 832,356 L 829,359 L 829,360 L 826,363 L 826,364 L 822,368 L 822,369 L 819,372 L 819,373 L 816,376 L 816,377 L 813,380 L 813,381 L 809,385 L 809,386 L 806,389 L 806,390 L 802,394 L 802,395 L 799,398 L 799,399 L 795,403 L 795,404 L 792,407 L 792,408 L 789,411 L 789,412 L 786,415 L 786,416 L 782,420 L 782,421 L 779,424 L 779,425 L 776,428 L 776,429 L 772,433 L 772,434 L 769,437 L 769,438 L 766,441 L 766,442 L 762,446 L 762,447 L 759,450 L 759,451 L 756,454 L 756,455 L 752,459 L 752,460 L 749,463 L 749,464 L 746,467 L 746,468 L 742,472 L 742,474 L 795,474 L 796,475 L 795,476 L 795,477 L 794,478 L 794,480 L 793,481 L 793,482 L 792,483 L 792,485 L 791,486 L 791,487 L 790,488 L 790,490 L 789,491 L 789,492 L 788,493 L 788,495 L 787,496 L 787,497 L 786,498 L 786,499 L 785,500 L 785,502 L 784,503 L 784,504 L 783,505 L 783,507 L 782,508 L 782,509 L 781,510 L 781,512 L 780,513 L 780,514 L 779,515 L 779,516 L 778,517 L 778,519 L 777,520 L 777,521 L 776,522 L 776,524 L 775,525 L 775,526 L 774,527 L 774,529 L 773,530 L 773,531 L 772,532 L 772,533 L 771,534 L 771,536 L 770,537 L 770,538 L 769,539 L 769,541 L 768,542 L 768,543 L 767,544 L 767,545 L 766,546 L 766,548 L 765,549 L 765,550 L 764,551 L 764,553 L 763,554 L 763,555 L 762,556 L 762,557 L 761,558 L 761,560 L 760,561 L 760,562 L 759,563 L 759,565 L 758,566 L 758,567 L 757,568 L 757,569 L 756,570 L 756,572 L 755,573 L 755,574 L 754,575 L 754,577 L 753,578 L 753,579 L 752,580 L 752,581 L 751,582 L 751,584 L 750,585 L 750,586 L 748,588 L 748,589 L 747,590 L 747,591 L 746,592 L 746,593 L 748,593 L 749,592 L 749,591 L 751,589 L 751,588 L 752,587 L 752,586 L 756,582 L 756,581 L 759,578 L 759,577 L 762,574 L 762,573 L 765,570 L 765,569 L 769,565 L 769,564 L 772,561 L 772,560 L 775,557 L 775,556 L 779,552 L 779,551 L 782,548 L 782,547 L 785,544 L 785,543 L 789,539 L 789,538 L 792,535 L 792,534 L 796,530 L 796,529 L 799,526 L 799,525 L 802,522 L 802,521 L 806,517 L 806,516 L 810,512 L 810,511 L 813,508 L 813,507 L 816,504 L 816,503 L 820,499 L 820,498 L 823,495 L 823,494 L 826,491 L 826,490 L 829,487 L 829,486 L 833,482 L 833,481 L 836,478 L 836,477 L 839,474 L 839,473 L 843,469 L 843,468 L 846,465 L 846,464 L 849,461 L 849,460 L 853,456 L 853,455 L 856,452 L 856,451 L 860,447 L 860,446 L 863,443 L 863,442 L 866,439 L 866,438 L 869,435 L 869,434 L 873,430 L 873,429 L 875,427 L 875,425 L 823,425 L 822,424 L 823,423 L 823,421 L 824,420 L 824,419 L 825,418 L 825,416 L 826,415 L 826,414 L 827,413 L 827,412 L 828,411 L 828,409 L 829,408 L 829,407 L 830,406 L 830,404 L 831,403 L 831,402 L 832,401 L 832,399 L 833,398 L 833,397 L 834,396 L 834,394 L 835,393 L 835,392 L 836,391 L 836,390 L 837,389 L 837,387 L 838,386 L 838,385 L 839,384 L 839,382 L 840,381 L 840,380 L 841,379 L 841,377 L 842,376 L 842,375 L 843,374 L 843,372 L 844,371 L 844,370 L 845,369 L 845,367 L 846,366 L 846,365 L 847,364 L 847,362 L 848,361 L 848,360 L 849,359 L 849,358 L 850,357 L 850,355 L 851,354 L 851,353 L 852,352 L 852,350 L 853,349 L 853,348 L 854,347 L 854,345 L 855,344 L 855,343 L 856,342 L 856,340 L 857,339 L 857,338 L 858,337 L 858,336 L 859,335 L 859,333 L 860,332 L 860,331 L 861,330 L 861,328 L 862,327 L 862,326 L 863,325 L 863,323 L 864,322 L 864,321 L 865,320 L 865,318 L 866,317 L 866,316 L 867,315 L 867,314 L 868,313 L 868,312 L 869,311 L 869,310 L 871,308 L 871,306 Z" fill="none" stroke="black" stroke-width="2" /></svg>